<?xml version="1.0" encoding="UTF-8"?>
<svg version="1.1" xmlns="http://www.w3.org/2000/svg" width="1600" height="900">
<path d="M0 0 C265.32 0 530.64 0 804 0 C804 234.3 804 468.6 804 710 C538.68 710 273.36 710 0 710 C0 475.7 0 241.4 0 0 Z " fill="#000000" transform="translate(408,135)"/>
<path d="M0 0 C32.98815213 26.50746641 50.86248091 61.05437209 63.47705078 100.8359375 C63.6969165 101.52134613 63.91678223 102.20675476 64.14331055 102.91293335 C66.591282 110.59119635 68.68230077 117.98865423 68.97705078 126.0859375 C69.03248047 127.30539062 69.08791016 128.52484375 69.14501953 129.78125 C69.23032585 144.76103947 67.77741378 157.48521149 60.97705078 171.0859375 C55.22705078 171.2109375 55.22705078 171.2109375 52.97705078 170.0859375 C52.97705078 169.4259375 52.97705078 168.7659375 52.97705078 168.0859375 C52.14173828 167.745625 52.14173828 167.745625 51.28955078 167.3984375 C48.31849893 165.71216483 46.33182953 163.5555835 43.97705078 161.0859375 C42.73955078 159.9103125 42.73955078 159.9103125 41.47705078 158.7109375 C39.06767901 156.18109714 37.13406642 153.62083989 35.18798828 150.734375 C34.01172501 149.04232056 34.01172501 149.04232056 32.47705078 147.60546875 C30.86999329 145.97748603 29.78407476 144.35393354 28.60205078 142.3984375 C28.17150391 141.69460938 27.74095703 140.99078125 27.29736328 140.265625 C26.86166016 139.54632813 26.42595703 138.82703125 25.97705078 138.0859375 C23.19648463 133.54377044 20.35565088 129.10800407 17.18798828 124.82421875 C15.97705078 123.0859375 15.97705078 123.0859375 14.66845703 120.671875 C12.65687672 117.59643351 10.40613276 115.68936936 7.53955078 113.3984375 C6.59208984 112.63144531 5.64462891 111.86445313 4.66845703 111.07421875 C-0.72747325 107.08796547 -4.52812939 106.73144011 -11.08544922 106.7734375 C-11.945979 106.77617676 -12.80650879 106.77891602 -13.69311523 106.78173828 C-19.14367307 106.87121814 -23.76153628 107.56694907 -28.94873047 109.28515625 C-33.30566154 110.42006206 -37.67352596 110.83720671 -42.14794922 111.2734375 C-42.98382568 111.35706543 -43.81970215 111.44069336 -44.6809082 111.52685547 C-52.24479357 112.22078991 -59.59922021 112.60213578 -67.08544922 111.0859375 C-68.02517578 110.9003125 -68.96490234 110.7146875 -69.93310547 110.5234375 C-70.62275391 110.3790625 -71.31240234 110.2346875 -72.02294922 110.0859375 C-72.02294922 109.4259375 -72.02294922 108.7659375 -72.02294922 108.0859375 C-72.85826172 107.7765625 -72.85826172 107.7765625 -73.71044922 107.4609375 C-78.36933825 104.69078727 -81.01024629 101.13956737 -82.33544922 95.9609375 C-84.37101412 84.5156858 -82.7951501 72.47865747 -81.02294922 61.0859375 C-82.34294922 61.4159375 -83.66294922 61.7459375 -85.02294922 62.0859375 C-85.11793701 63.03621826 -85.2129248 63.98649902 -85.31079102 64.96557617 C-91.78825484 128.94508425 -91.78825484 128.94508425 -115.02294922 151.0859375 C-131.55133371 163.9505301 -154.12956817 163.47900101 -174.02294922 163.0859375 C-174.26658203 163.82585937 -174.51021484 164.56578125 -174.76123047 165.328125 C-176.17797258 168.42478112 -177.6625867 169.97443168 -180.21044922 172.2109375 C-180.94650391 172.87351562 -181.68255859 173.53609375 -182.44091797 174.21875 C-188.00082982 178.23938217 -193.17727156 179.60386091 -199.96044922 179.4609375 C-200.6662915 179.44933594 -201.37213379 179.43773437 -202.09936523 179.42578125 C-211.28634955 179.13679551 -216.3253211 176.59362132 -223.03466797 170.359375 C-225.9984126 166.97057465 -227.61804369 163.33012762 -229.02294922 159.0859375 C-236.01894849 158.85055809 -242.28148227 159.17184242 -249.02294922 161.0859375 C-249.78607422 161.28058594 -250.54919922 161.47523438 -251.33544922 161.67578125 C-256.9756519 163.28590668 -261.00361838 165.7914739 -265.02294922 170.0859375 C-267.42592686 174.89189278 -266.59664588 181.04582928 -265.18701172 186.05859375 C-259.19394225 201.32282102 -248.48526093 212.73491037 -237.02294922 224.0859375 C-236.05035156 225.05466797 -236.05035156 225.05466797 -235.05810547 226.04296875 C-219.44574706 240.72786032 -199.17819399 247.2859871 -178.08544922 247.2734375 C-176.40636475 247.2744043 -176.40636475 247.2744043 -174.69335938 247.27539062 C-167.44582927 247.22928808 -160.6012237 246.67242893 -153.44482422 245.5390625 C-142.94671153 244.14890146 -132.12282248 244.03600087 -122.52294922 248.8359375 C-120.02294922 251.0859375 -120.02294922 251.0859375 -118.77294922 253.7109375 C-119.67940355 265.94807092 -133.18028997 275.9218874 -141.78076172 283.5234375 C-144.48484674 285.772707 -147.23743487 287.93824468 -150.02294922 290.0859375 C-150.94068115 290.80233398 -150.94068115 290.80233398 -151.87695312 291.53320312 C-161.03173071 298.67904653 -170.3683442 305.51244761 -179.87841797 312.17578125 C-201.67946011 327.45745855 -220.62712906 344.05477695 -233.02294922 368.0859375 C-233.65387559 369.26403289 -234.28687493 370.44101931 -234.92138672 371.6171875 C-250.73102109 400.95672034 -264.12671037 431.37642832 -255.02294922 465.0859375 C-252.2309276 472.87905278 -247.98350486 479.44500977 -240.55029297 483.40234375 C-233.8379461 486.17420497 -227.23425768 487.13693628 -220.02294922 486.0859375 C-216.72090996 484.49469479 -216.72090996 484.49469479 -214.81982422 483.17578125 C-205.09246113 477.27592407 -191.20282104 477.7986179 -180.36279297 479.7421875 C-172.71649746 481.85653858 -166.40325594 485.42892906 -160.02294922 490.0859375 C-159.36552734 490.54742188 -158.70810547 491.00890625 -158.03076172 491.484375 C-149.56442569 497.9940467 -143.41961789 509.33537226 -141.27294922 519.7109375 C-141.16003209 521.1672789 -141.08208677 522.62642275 -141.02294922 524.0859375 C-140.95978516 525.20097656 -140.89662109 526.31601562 -140.83154297 527.46484375 C-140.34223479 542.8543752 -144.78517851 555.24022847 -154.77294922 566.8359375 C-159.14250967 571.47051567 -163.2171817 574.54025434 -169.02294922 577.0859375 C-169.75642578 577.46363281 -170.48990234 577.84132813 -171.24560547 578.23046875 C-182.40206562 583.50138398 -198.42510426 583.69463888 -210.11279297 580.1484375 C-217.03190177 577.49596704 -222.45661992 573.92122918 -228.02294922 569.0859375 C-228.69970703 568.54066406 -229.37646484 567.99539063 -230.07373047 567.43359375 C-239.68901005 559.49865429 -245.60700157 549.94554122 -250.77734375 538.77197266 C-251.69021584 536.80344684 -252.61473944 534.840313 -253.54589844 532.88037109 C-274.47902908 488.74291745 -284.60094546 438.01077936 -267.83154297 390.7265625 C-263.70011246 379.69214621 -258.59466756 369.08739497 -253.52294922 358.4609375 C-253.06275391 357.48898437 -252.60255859 356.51703125 -252.12841797 355.515625 C-249.61018931 350.23798522 -246.9821876 345.07175426 -244.07592773 339.99658203 C-242.49099432 337.12069774 -241.26956326 334.12117169 -240.02294922 331.0859375 C-239.3790928 329.66837126 -238.73311588 328.25176695 -238.08544922 326.8359375 C-231.78245944 312.61194908 -226.64584685 297.63921257 -232.14794922 282.3359375 C-234.47887476 276.86473727 -237.22130782 272.61093562 -241.02294922 268.0859375 C-242.28749298 266.47743784 -243.55160427 264.86858573 -244.80981445 263.25512695 C-246.23176886 261.4336274 -247.66151136 259.61849458 -249.09326172 257.8046875 C-251.01168927 255.37255476 -252.92316234 252.9352606 -254.82763672 250.4921875 C-259.98525748 243.88281899 -265.22853012 237.37042804 -270.62451172 230.953125 C-272.95503843 228.16712076 -275.24128171 225.34950287 -277.52294922 222.5234375 C-281.42042585 217.74455273 -285.51364206 213.17879984 -289.68310547 208.63671875 C-292.86079519 205.1725595 -295.96549081 201.65634699 -299.02294922 198.0859375 C-299.72033203 197.29058594 -300.41771484 196.49523437 -301.13623047 195.67578125 C-323.3754079 169.59564053 -338.20185646 135.3230668 -336.25048828 100.79980469 C-334.02907597 74.30493425 -322.73268142 50.63453966 -305.02294922 31.0859375 C-303.93626953 29.67248047 -303.93626953 29.67248047 -302.82763672 28.23046875 C-302.23208984 27.52277344 -301.63654297 26.81507813 -301.02294922 26.0859375 C-300.36294922 26.0859375 -299.70294922 26.0859375 -299.02294922 26.0859375 C-298.69294922 25.0959375 -298.36294922 24.1059375 -298.02294922 23.0859375 C-295.99904786 21.25168429 -293.99031751 19.56551936 -291.83544922 17.8984375 C-291.20977051 17.4122998 -290.5840918 16.92616211 -289.93945312 16.42529297 C-268.65164563 0.23974206 -245.18924919 -6.13397653 -218.71044922 -6.1640625 C-217.93716278 -6.16573425 -217.16387634 -6.16740601 -216.36715698 -6.16912842 C-202.09963002 -6.17096875 -188.13340497 -5.09576541 -174.02294922 -2.9140625 C-173.00797363 -2.759375 -171.99299805 -2.6046875 -170.94726562 -2.4453125 C-164.95138931 -1.49337624 -159.11076981 -0.32978911 -153.27294922 1.3359375 C-152.515625 1.54919678 -151.75830078 1.76245605 -150.97802734 1.98217773 C-143.15290057 4.24387393 -135.59367355 7.09595946 -128.02294922 10.0859375 C-127.08837891 10.43527344 -126.15380859 10.78460938 -125.19091797 11.14453125 C-119.66080308 13.24336225 -114.59422045 15.86487024 -109.46826172 18.81640625 C-107.27914295 19.95292957 -105.43080413 20.62116551 -103.02294922 21.0859375 C-102.81669922 20.3228125 -102.61044922 19.5596875 -102.39794922 18.7734375 C-97.0373095 4.39717645 -87.00805281 -8.26874268 -72.93310547 -14.8984375 C-48.46528751 -24.85463214 -19.71168656 -15.41891927 0 0 Z " fill="#4D87B7" transform="translate(860.02294921875,184.9140625)"/>
<path d="M0 0 C0.33 0 0.66 0 1 0 C1.22042969 0.87398438 1.22042969 0.87398438 1.4453125 1.765625 C4.99260915 14.73160584 11.58012695 24.76723562 20 35 C20.63292969 35.77601563 21.26585937 36.55203125 21.91796875 37.3515625 C35.87052036 53.890285 56.31000152 66.40224437 78 69 C81.97991221 69.16691538 85.95443349 69.18986981 89.9375 69.1875 C91.61658447 69.1884668 91.61658447 69.1884668 93.32958984 69.18945312 C100.57711995 69.14335058 107.42172552 68.58649143 114.578125 67.453125 C125.07623769 66.06296396 135.90012674 65.95006337 145.5 70.75 C148 73 148 73 149.25 75.625 C148.34354567 87.86213342 134.84265925 97.8359499 126.2421875 105.4375 C123.53810248 107.6867695 120.78551435 109.85230718 118 112 C117.38817871 112.47759766 116.77635742 112.95519531 116.14599609 113.44726562 C106.99121851 120.59310903 97.65460502 127.42651011 88.14453125 134.08984375 C66.34348911 149.37152105 47.39582016 165.96883945 35 190 C34.36907362 191.17809539 33.73607429 192.35508181 33.1015625 193.53125 C17.29192813 222.87078284 3.89623884 253.29049082 13 287 C15.79202161 294.79311528 20.03944436 301.35907227 27.47265625 305.31640625 C34.18500312 308.08826747 40.78869154 309.05099878 48 308 C51.30203926 306.40875729 51.30203926 306.40875729 53.203125 305.08984375 C62.93048809 299.18998657 76.82012818 299.7126804 87.66015625 301.65625 C95.30645176 303.77060108 101.61969328 307.34299156 108 312 C108.65742187 312.46148438 109.31484375 312.92296875 109.9921875 313.3984375 C118.45852352 319.9081092 124.60333133 331.24943476 126.75 341.625 C126.86291713 343.0813414 126.94086245 344.54048525 127 346 C127.09474609 347.67255859 127.09474609 347.67255859 127.19140625 349.37890625 C127.68071443 364.7684377 123.23777071 377.15429097 113.25 388.75 C108.88043955 393.38457817 104.80576751 396.45431684 99 399 C98.26652344 399.37769531 97.53304687 399.75539063 96.77734375 400.14453125 C85.62088359 405.41544648 69.59784496 405.60870138 57.91015625 402.0625 C50.99104745 399.41002954 45.5663293 395.83529168 40 391 C39.32324219 390.45472656 38.64648438 389.90945313 37.94921875 389.34765625 C28.33393917 381.41271679 22.41594764 371.85960372 17.24560547 360.68603516 C16.33273338 358.71750934 15.40820978 356.7543755 14.47705078 354.79443359 C-6.45607986 310.65697995 -16.57799624 259.92484186 0.19140625 212.640625 C4.32283676 201.60620871 9.42828166 191.00145747 14.5 180.375 C14.96019531 179.40304687 15.42039062 178.43109375 15.89453125 177.4296875 C18.41275991 172.15204772 21.04076162 166.98581676 23.94702148 161.91064453 C25.5319549 159.03476024 26.75338596 156.03523419 28 153 C28.64385642 151.58243376 29.28983334 150.16582945 29.9375 148.75 C41.36604179 122.95915281 39.71742928 98.18832783 29.6472168 72.04833984 C24.33382364 59.14087413 17.29306693 46.93215854 10.00830078 35.05419922 C2.9122704 23.39202754 -0.45006004 13.60181452 0 0 Z " fill="#8C607B" transform="translate(592,363)"/>
<path d="M0 0 C4.32897935 3.33738408 8.31144015 7.01414909 12.28515625 10.76171875 C12.96449219 11.365 13.64382813 11.96828125 14.34375 12.58984375 C23.84590644 21.38459619 30.42312589 33.35402157 36.28515625 44.76171875 C36.63964844 45.39722656 36.99414062 46.03273437 37.359375 46.6875 C46.27417386 63.14287972 48.43265705 81.2477078 48.94677734 99.61547852 C49.14159148 106.42304468 49.43824049 113.1757151 50.16015625 119.94921875 C50.22662354 120.63604736 50.29309082 121.32287598 50.36157227 122.03051758 C50.85706109 126.2885419 51.99191956 129.9156497 53.56738281 133.85766602 C54.58668011 136.56157745 55.1491902 139.30856939 55.72265625 142.13671875 C57.94944895 152.08841604 61.81153219 160.18637439 67.28515625 168.76171875 C58.79237673 165.5169691 52.93757734 158.981291 48.03515625 151.44921875 C46.47975486 148.85034827 46.47975486 148.85034827 44.82421875 147.32421875 C43.20211415 145.67741204 42.10430591 144.04977507 40.91015625 142.07421875 C40.47960937 141.37039063 40.0490625 140.6665625 39.60546875 139.94140625 C39.16976562 139.22210938 38.7340625 138.5028125 38.28515625 137.76171875 C35.5045901 133.21955169 32.66375635 128.78378532 29.49609375 124.5 C28.28515625 122.76171875 28.28515625 122.76171875 26.9765625 120.34765625 C24.96498219 117.27221476 22.71423823 115.36515061 19.84765625 113.07421875 C18.90019531 112.30722656 17.95273437 111.54023438 16.9765625 110.75 C11.58063222 106.76374672 7.77997608 106.40722136 1.22265625 106.44921875 C-0.06813843 106.45332764 -0.06813843 106.45332764 -1.38500977 106.45751953 C-6.8355676 106.54699939 -11.45343081 107.24273032 -16.640625 108.9609375 C-20.99755607 110.09584331 -25.36542049 110.51298796 -29.83984375 110.94921875 C-30.67572021 111.03284668 -31.51159668 111.11647461 -32.37280273 111.20263672 C-39.9366881 111.89657116 -47.29111474 112.27791703 -54.77734375 110.76171875 C-56.18693359 110.48328125 -56.18693359 110.48328125 -57.625 110.19921875 C-58.31464844 110.05484375 -59.00429688 109.91046875 -59.71484375 109.76171875 C-59.71484375 109.10171875 -59.71484375 108.44171875 -59.71484375 107.76171875 C-60.27171875 107.55546875 -60.82859375 107.34921875 -61.40234375 107.13671875 C-66.06123278 104.36656852 -68.70214082 100.81534862 -70.02734375 95.63671875 C-72.06290865 84.19146705 -70.48704463 72.15443872 -68.71484375 60.76171875 C-70.03484375 60.76171875 -71.35484375 60.76171875 -72.71484375 60.76171875 C-72.71484375 59.11171875 -72.71484375 57.46171875 -72.71484375 55.76171875 C-66.58784394 57.93581546 -60.94952015 61.2421388 -55.58984375 64.88671875 C-53.06968283 66.53030196 -50.65352534 67.67833309 -47.89111328 68.83398438 C-45.32315409 69.92869437 -42.78634312 71.08464944 -40.24609375 72.2421875 C-38.23571597 73.14461789 -36.22529841 74.04695965 -34.21484375 74.94921875 C-33.20808594 75.41263672 -32.20132813 75.87605469 -31.1640625 76.35351562 C-25.75941128 78.7583375 -21.65108516 80.40369991 -15.71484375 79.76171875 C-16.05684463 76.91543753 -16.30380599 75.20821076 -18.27441406 73.06762695 C-19.27359863 72.32258911 -19.27359863 72.32258911 -20.29296875 71.5625 C-21.03554932 70.99797119 -21.77812988 70.43344238 -22.54321289 69.85180664 C-23.34235107 69.26520264 -24.14148926 68.67859863 -24.96484375 68.07421875 C-25.77880615 67.4598999 -26.59276855 66.84558105 -27.43139648 66.21264648 C-29.0797312 64.96922278 -30.73197795 63.73096728 -32.38818359 62.49804688 C-35.54537544 60.14191378 -38.66182386 57.73498133 -41.77734375 55.32421875 C-44.55976992 53.18603394 -47.34226842 51.04794356 -50.125 48.91015625 C-56.08234429 44.30818658 -61.90631428 39.54968416 -67.71484375 34.76171875 C-65.1139714 20.99876921 -56.8995867 9.60983434 -45.71875 1.2734375 C-43.75865035 -0.00043008 -41.77636676 -1.13649893 -39.71484375 -2.23828125 C-38.90917969 -2.68042969 -38.10351562 -3.12257812 -37.2734375 -3.578125 C-23.31066033 -10.93256489 -12.8448827 -8.9936833 0 0 Z " fill="#4E80B7" transform="translate(847.71484375,185.23828125)"/>
<path d="M0 0 C3.46567299 0.69601466 6.93532308 1.08870869 10.4453125 1.50390625 C16.48130085 2.28093874 22.08489456 3.5421411 27.8203125 5.56640625 C27.45679688 7.05914062 27.45679688 7.05914062 27.0859375 8.58203125 C25.14306817 16.6520351 23.35111277 24.73227926 21.7578125 32.87890625 C20.32324266 40.17353905 18.74660119 47.38332972 16.8203125 54.56640625 C16.458026 56.00122452 16.09607373 57.4361272 15.734375 58.87109375 C12.45568879 71.60238994 9.172972 83.75359814 -2.1796875 91.56640625 C-2.85773438 92.03691406 -3.53578125 92.50742187 -4.234375 92.9921875 C-13.55458923 98.77891392 -26.33853614 101.5000619 -37.1796875 99.56640625 C-39.4921875 97.00390625 -39.4921875 97.00390625 -41.1796875 93.56640625 C-46.98264105 87.0329146 -53.11485759 84.32214829 -61.6875 83.25390625 C-66.52262825 83.01139198 -69.99872467 83.73461877 -74.4296875 85.69140625 C-78.84678233 87.60890478 -78.84678233 87.60890478 -82.1171875 87.19140625 C-83.1278125 86.65515625 -84.1384375 86.11890625 -85.1796875 85.56640625 C-86.01371094 85.14617187 -86.84773437 84.7259375 -87.70703125 84.29296875 C-98.95647284 78.45992496 -109.77383985 70.77663963 -116.1796875 59.56640625 C-116.1796875 58.90640625 -116.1796875 58.24640625 -116.1796875 57.56640625 C-116.8396875 57.56640625 -117.4996875 57.56640625 -118.1796875 57.56640625 C-121.93187786 49.54274918 -123.8868035 42.89340064 -120.8671875 34.31640625 C-118.41209798 28.23713696 -115.18711462 24.39584601 -109.9296875 20.50390625 C-109.10791016 19.87258789 -109.10791016 19.87258789 -108.26953125 19.22851562 C-81.49555518 -0.9930471 -32.10592268 -6.69263403 0 0 Z " fill="#010001" transform="translate(723.1796875,221.43359375)"/>
<path d="M0 0 C0 0.66 0 1.32 0 2 C0.99 1.67 1.98 1.34 3 1 C13.9641437 -0.13422176 21.4223102 6.68182089 29.60546875 13.20703125 C61.78011436 39.41417153 79.14192283 73.77731523 91.5 112.75 C91.71986572 113.43540863 91.93973145 114.12081726 92.16625977 114.82699585 C94.61423122 122.50525885 96.70524999 129.90271673 97 138 C97.05542969 139.21945312 97.11085938 140.43890625 97.16796875 141.6953125 C97.25327507 156.67510197 95.800363 169.39927399 89 183 C86.125 183.125 86.125 183.125 83 183 C82.34 182.34 81.68 181.68 81 181 C81 180.34 81 179.68 81 179 C80.11897958 177.49932854 79.19467395 176.02393865 78.25 174.5625 C72.91643866 165.77339187 70.49620193 156.52634554 68.30615234 146.57397461 C67.77349547 142.99009025 67.77349547 142.99009025 66 140 C65.60106102 137.53779849 65.27687245 135.10213906 65 132.625 C64.90952393 131.83770508 64.81904785 131.05041016 64.72583008 130.23925781 C64.09371085 124.2200589 63.87546326 118.24392244 63.75952148 112.19482422 C63.05284243 78.39400569 51.56484443 46.87746292 27 23 C25.73349609 21.75476563 25.73349609 21.75476563 24.44140625 20.484375 C19.07613579 15.42880034 13.5456837 11.39064367 7 8 C6.18660156 7.56300781 5.37320313 7.12601563 4.53515625 6.67578125 C-2.10857748 3.51659665 -7.09539732 3.55425199 -14 6 C-30.12901023 12.7872214 -42.26663744 23.65703371 -49.2734375 39.89453125 C-50.08251805 42.23912488 -50.56573794 44.56046901 -51 47 C-44.23101731 52.8542553 -37.44712514 58.51661555 -30.1484375 63.70703125 C-19.51332043 71.4524577 -9.22734096 79.72561862 1 88 C0.67 89.65 0.34 91.3 0 93 C-7.29931898 93.87968837 -12.92183571 90.75722967 -19.4375 87.75 C-20.53126953 87.25886719 -21.62503906 86.76773438 -22.75195312 86.26171875 C-31.14530756 82.47182361 -39.3375327 78.47964632 -47.3125 73.875 C-48.22225586 73.35486328 -48.22225586 73.35486328 -49.15039062 72.82421875 C-51.82643194 71.28748215 -54.43117943 69.71254705 -57 68 C-57.03738281 68.94875 -57.07476563 69.8975 -57.11328125 70.875 C-58.60116298 103.49394552 -62.1018902 139.27404148 -87 163 C-103.52838449 175.8645926 -126.10661895 175.39306351 -146 175 C-146.24363281 175.73992187 -146.48726562 176.47984375 -146.73828125 177.2421875 C-148.15502336 180.33884362 -149.63963748 181.88849418 -152.1875 184.125 C-152.92355469 184.78757812 -153.65960937 185.45015625 -154.41796875 186.1328125 C-159.97788061 190.15344467 -165.15432234 191.51792341 -171.9375 191.375 C-172.64334229 191.36339844 -173.34918457 191.35179687 -174.07641602 191.33984375 C-183.26239717 191.05088956 -188.31649 188.51039467 -195.015625 182.26171875 C-197.9970688 178.86357709 -199.58945094 175.25683557 -201 171 C-201.33 170.01 -201.66 169.02 -202 168 C-202.83265391 157.38025019 -201.85847328 149.68212301 -195.25 141.25 C-190.14613596 135.69503686 -183.34489006 131.52145269 -175.7578125 130.78125 C-166.71489257 130.44319692 -159.69211251 132.1890027 -152.6875 138.0625 C-147.12870185 143.40279193 -142.44948173 150.57164372 -141.796875 158.453125 C-141.78140625 159.37609375 -141.7659375 160.2990625 -141.75 161.25 C-141.72421875 162.16265625 -141.6984375 163.0753125 -141.671875 164.015625 C-142.09063103 167.82431079 -143.36566942 170.54210057 -145 174 C-123.51229027 168.04527242 -123.51229027 168.04527242 -105 156 C-104.37222656 155.45472656 -103.74445313 154.90945313 -103.09765625 154.34765625 C-98.27248352 149.8603512 -95.11630714 144.76848343 -92 139 C-91.24203125 137.62328125 -91.24203125 137.62328125 -90.46875 136.21875 C-84.44382914 124.78369613 -80.95143611 112.92932848 -78.6171875 100.30078125 C-78.13921533 97.74453769 -77.60232227 95.26098256 -76.9375 92.75 C-76.18516877 89.74067506 -75.59129284 86.80139473 -75.0625 83.75 C-74.37039638 79.79901475 -73.50977642 75.94430382 -72.5 72.0625 C-71.48704307 68.15108215 -70.7039033 64.31020961 -70.125 60.3125 C-67.00548838 40.82833728 -59.5861887 22.38879452 -43.1328125 10.453125 C-40.14867765 8.41997818 -37.27094229 6.52562607 -34 5 C-33.0615625 4.55398437 -32.123125 4.10796875 -31.15625 3.6484375 C-20.73879274 -0.70839626 -11.12562347 -0.50367511 0 0 Z " fill="#F38969" transform="translate(832,173)"/>
<path d="M0 0 C1.16404861 -0.00619858 2.32809723 -0.01239716 3.52742004 -0.01878357 C5.97033864 -0.0258421 8.41330575 -0.02277779 10.85620117 -0.01000977 C14.58276768 0.003909 18.30684585 -0.03034283 22.03320312 -0.06835938 C24.41796936 -0.06931023 26.80273872 -0.06745354 29.1875 -0.0625 C30.8455793 -0.08238731 30.8455793 -0.08238731 32.53715515 -0.10267639 C40.92806626 -0.0020419 45.46616658 2.25830968 51.76953125 7.56640625 C55.95982581 12.72369186 56.01020293 18.16537524 55.39453125 24.56640625 C54.08315116 30.8147467 51.19873738 34.46281352 46.39453125 38.56640625 C43.49013364 39.53453879 41.66634885 39.68785459 38.64770508 39.67993164 C37.68693558 39.67985611 36.72616608 39.67978058 35.73628235 39.67970276 C34.7018248 39.67454147 33.66736725 39.66938019 32.6015625 39.6640625 C31.54039719 39.66264755 30.47923187 39.6612326 29.38591003 39.65977478 C25.9929219 39.65417231 22.59999948 39.64161939 19.20703125 39.62890625 C16.90820408 39.62389157 14.60937587 39.61932861 12.31054688 39.61523438 C6.67182924 39.60505251 1.03325391 39.58547747 -4.60546875 39.56640625 C-4.60546875 47.15640625 -4.60546875 54.74640625 -4.60546875 62.56640625 C-1.00511719 62.53160156 2.59523438 62.49679687 6.3046875 62.4609375 C9.80297045 62.43752164 13.30124458 62.41931655 16.79956055 62.40161133 C19.22538174 62.38655216 21.65117583 62.36610063 24.0769043 62.34008789 C27.56956687 62.30357922 31.0618685 62.28665072 34.5546875 62.2734375 C35.63412125 62.25795364 36.71355499 62.24246979 37.82569885 62.22651672 C45.320267 62.22485267 50.22134135 63.02785433 56.20703125 67.81640625 C60.43975282 73.13754193 60.92567275 79.10203241 60.76171875 85.71484375 C60.13681415 90.56782627 58.68968522 94.90584907 55.39453125 98.56640625 C47.58121929 103.92949535 38.36088697 103.13179965 29.3203125 103.0625 C27.66603024 103.06265522 26.01174762 103.06414797 24.35746765 103.06690979 C20.90538281 103.06828822 17.45371628 103.05582563 14.00170898 103.03295898 C9.58671539 103.00450871 5.17241239 103.00733716 0.75736713 103.0200491 C-2.65281534 103.02701547 -6.06283926 103.01920721 -9.47300148 103.00679207 C-11.10082198 103.00229159 -12.72865957 103.00192845 -14.35648155 103.00585747 C-16.63213207 103.00878093 -18.90684174 102.99221233 -21.18237305 102.97045898 C-22.47427048 102.965056 -23.76616791 102.95965302 -25.09721375 102.9540863 C-30.38182967 102.37010932 -33.56164929 100.61022571 -37.29296875 96.87890625 C-42.68880888 89.79111136 -43.07257532 82.48787569 -43.07421875 73.90234375 C-43.08183228 72.79267242 -43.0894458 71.6830011 -43.09729004 70.53970337 C-43.10805829 68.19820392 -43.11095753 65.85665658 -43.10644531 63.51513672 C-43.10547733 59.97279482 -43.14705082 56.43265244 -43.19140625 52.890625 C-43.27229806 37.56125457 -42.75647521 23.32516899 -31.60546875 11.56640625 C-31.02023437 10.94121094 -30.435 10.31601562 -29.83203125 9.671875 C-21.36142483 1.46057286 -11.40745057 -0.051468 0 0 Z " fill="#F58E68" transform="translate(864.60546875,457.43359375)"/>
<path d="M0 0 C1.11010941 -0.0098568 1.11010941 -0.0098568 2.24264526 -0.01991272 C4.69797871 -0.03966194 7.15325084 -0.05131379 9.60864258 -0.0612793 C10.44757868 -0.06535482 11.28651478 -0.06943035 12.15087318 -0.07362938 C16.59390645 -0.09450014 21.03690877 -0.10879573 25.47998047 -0.11816406 C30.06211313 -0.12921194 34.64375795 -0.16358991 39.2257185 -0.20333576 C42.7542865 -0.22953 46.28273897 -0.23785853 49.81139565 -0.24144554 C51.49983313 -0.24630671 53.18826561 -0.25790733 54.87660789 -0.27648354 C57.24625154 -0.30092859 59.6146429 -0.2999004 61.984375 -0.29296875 C62.67607285 -0.30577881 63.36777069 -0.31858887 64.08042908 -0.33178711 C69.47405992 -0.27457489 72.45225309 1.23920096 76.81567383 4.17700195 C82.31157258 9.96215853 82.12237648 15.2651547 82.01879883 22.98168945 C81.69404664 28.09029125 80.87408589 31.32906147 76.90551758 34.8918457 C72.46609889 38.31607972 69.57642915 40.3044915 63.90698242 40.29052734 C62.88607513 40.29045181 61.86516785 40.29037628 60.81332397 40.29029846 C59.15546371 40.28255653 59.15546371 40.28255653 57.46411133 40.2746582 C56.33494293 40.27324326 55.20577454 40.27182831 54.04238892 40.27037048 C50.42512394 40.26475939 46.80792019 40.25220498 43.19067383 40.23950195 C40.74275805 40.23448838 38.29484131 40.22992523 35.84692383 40.22583008 C29.83648347 40.21478635 23.82608904 40.19751424 17.81567383 40.17700195 C17.81567383 43.47700195 17.81567383 46.77700195 17.81567383 50.17700195 C16.65551758 50.32395508 16.65551758 50.32395508 15.47192383 50.47387695 C4.63952753 52.02902296 -4.01295054 55.38104549 -10.81323242 64.31762695 C-13.85031226 68.79332356 -16.56713377 73.44592338 -19.18432617 78.17700195 C-19.51432617 78.17700195 -19.84432617 78.17700195 -20.18432617 78.17700195 C-20.30073731 70.26600749 -20.38930028 62.35537736 -20.44338703 54.44373512 C-20.46936055 50.76906469 -20.50452921 47.0949849 -20.56152344 43.4206543 C-20.61628784 39.8673977 -20.64583853 36.31470522 -20.65871239 32.76105881 C-20.67229894 30.76146567 -20.71126021 28.76209607 -20.75080872 26.7628479 C-20.75341062 18.21604305 -19.67082331 10.92696346 -13.5995636 4.49917603 C-9.01028844 0.53430304 -5.85088944 0.02241672 0 0 Z " fill="#F48F67" transform="translate(842.184326171875,397.822998046875)"/>
<path d="M0 0 C34.02745076 26.49898931 52.40621696 61.68308328 65.25 102.1875 C65.46986572 102.87290863 65.68973145 103.55831726 65.91625977 104.26449585 C68.36423122 111.94275885 70.45524999 119.34021673 70.75 127.4375 C70.80542969 128.65695312 70.86085938 129.87640625 70.91796875 131.1328125 C71.00327507 146.11260197 69.550363 158.83677399 62.75 172.4375 C59.875 172.5625 59.875 172.5625 56.75 172.4375 C56.09 171.7775 55.43 171.1175 54.75 170.4375 C54.75 169.7775 54.75 169.1175 54.75 168.4375 C53.86897958 166.93682854 52.94467395 165.46143865 52 164 C46.66643866 155.21089187 44.24620193 145.96384554 42.05615234 136.01147461 C41.52349547 132.42759025 41.52349547 132.42759025 39.75 129.4375 C39.35106102 126.97529849 39.02687245 124.53963906 38.75 122.0625 C38.65952393 121.27520508 38.56904785 120.48791016 38.47583008 119.67675781 C37.84371085 113.6575589 37.62546326 107.68142244 37.50952148 101.63232422 C36.80284243 67.83150569 25.31484443 36.31496292 0.75 12.4375 C-0.09433594 11.60734375 -0.93867187 10.7771875 -1.80859375 9.921875 C-9.99242243 2.2104358 -18.71152431 -2.75071092 -29.25 -6.5625 C-28.92 -7.2225 -28.59 -7.8825 -28.25 -8.5625 C-16.381835 -12.15891364 -9.18390993 -6.94858606 0 0 Z " fill="#F39769" transform="translate(858.25,183.5625)"/>
<path d="M0 0 C0 0.33 0 0.66 0 1 C-4.455 1.495 -4.455 1.495 -9 2 C-9 1.34 -9 0.68 -9 0 C-25.94591466 0.03472523 -40.29417929 2.24135995 -54 13 C-54.58652344 13.4021875 -55.17304687 13.804375 -55.77734375 14.21875 C-69.27444449 24.25740996 -75.93174012 44.29935228 -78.52734375 60.23828125 C-78.66269531 61.25277344 -78.79804687 62.26726562 -78.9375 63.3125 C-79.54390392 67.4666056 -80.31796305 71.41025853 -81.5 75.4375 C-82.71585917 79.61397627 -83.43674235 83.68638517 -84 88 C-84.70298898 93.35443272 -85.772971 98.39158412 -87.2890625 103.5703125 C-87.8862882 105.61138054 -88.3917623 107.67898127 -88.875 109.75 C-93.23838347 126.95918441 -99.89145955 143.59026042 -113 156 C-113.61875 156.59167969 -114.2375 157.18335938 -114.875 157.79296875 C-120.73877965 163.09393026 -127.3950066 166.40365244 -134.75 169.125 C-135.44158203 169.38361816 -136.13316406 169.64223633 -136.84570312 169.90869141 C-142.46680854 171.94432342 -148.0575696 173.2697861 -154 174 C-153.505 172.6078125 -153.505 172.6078125 -153 171.1875 C-151.03068939 164.28084636 -151.244889 157.58165405 -154 151 C-154 150.01 -154 149.02 -154 148 C-152.82824219 147.90203125 -151.65648437 147.8040625 -150.44921875 147.703125 C-136.0823403 146.38660764 -123.91569248 143.73579038 -113.25 133.3125 C-106.59478049 124.41600381 -104.44194827 113.58531487 -102 103 C-101.50367445 101.08237854 -101.00396968 99.1656267 -100.5 97.25 C-99.16101265 91.93023944 -98.11014872 86.57009077 -97.0625 81.1875 C-93.89312458 65.06742664 -89.07293544 49.60590636 -84 34 C-84.66 33.67 -85.32 33.34 -86 33 C-85.34 33 -84.68 33 -84 33 C-83.79375 32.236875 -83.5875 31.47375 -83.375 30.6875 C-78.01436029 16.31123895 -67.98510359 3.64531982 -53.91015625 -2.984375 C-36.50496799 -10.06671648 -16.94584404 -6.11579334 0 0 Z " fill="#49599B" transform="translate(841,173)"/>
<path d="M0 0 C1.32678335 0.33923438 2.66022654 0.6538786 4 0.9375 C7.42950946 1.74941038 10.07228166 2.98719364 13 5 C11.56390017 11.73862227 9.85991713 18.36629557 8 25 C6.62422639 24.88382356 5.24938955 24.75654223 3.875 24.625 C3.10929688 24.55539063 2.34359375 24.48578125 1.5546875 24.4140625 C-1 24 -1 24 -3.73828125 23.02734375 C-7.83304074 21.73761711 -11.80251523 21.33938536 -16.0625 20.9375 C-17.63692137 20.78198573 -19.21114824 20.62448748 -20.78515625 20.46484375 C-21.52797852 20.38959473 -22.27080078 20.3143457 -23.03613281 20.23681641 C-25 20 -25 20 -27.42578125 19.45703125 C-57.56460737 14.10613192 -102.16024416 21.19882663 -127.6953125 38.3515625 C-129.82061235 39.87169222 -131.92006044 41.41847914 -134 43 C-125.4218864 24.07889775 -95.21653498 9.22771493 -76.66137695 1.96386719 C-72.17202654 0.33796539 -67.60788874 -0.94517705 -63 -2.1875 C-62.07960938 -2.44724609 -61.15921875 -2.70699219 -60.2109375 -2.97460938 C-40.29591281 -8.40215484 -19.15478057 -7.66838344 0 0 Z " fill="#F28D69" transform="translate(744,202)"/>
<path d="M0 0 C0.92474121 0.00547852 1.84948242 0.01095703 2.80224609 0.01660156 C8.83107854 0.20269644 13.21862756 0.94689138 17.9765625 4.921875 C22.38453986 9.84976764 22.38453986 9.84976764 22.9375 13.5625 C22.36956835 17.53802153 21.60507227 19.05006202 18.5 21.625 C14.49253951 22.35023072 10.8342335 22.17237785 7.0625 20.625 C2.93157815 19.01293294 -1.13039608 19.0697863 -5.5 19.625 C-9.92262485 21.83631242 -11.96537111 25.33523729 -13.76953125 29.8125 C-16.36686693 39.81293684 -15.00292344 50.40725084 -10.5 59.625 C-5.67897852 67.35772752 0.6447535 73.10228232 8.5 77.625 C8.5 77.955 8.5 78.285 8.5 78.625 C-13.59519968 79.49147842 -13.59519968 79.49147842 -21.69921875 72.8125 C-30.81712484 63.6440325 -33.6768113 51.42532109 -33.75 38.9375 C-33.770625 38.07705078 -33.79125 37.21660156 -33.8125 36.33007812 C-33.84930476 30.22508818 -32.77233053 25.27784911 -30.5 19.625 C-30.108125 18.635 -29.71625 17.645 -29.3125 16.625 C-22.17176623 4.80585444 -13.75790664 -0.16440736 0 0 Z " fill="#F39467" transform="translate(790.5,398.375)"/>
<path d="M0 0 C11.38360132 0.74646566 19.44551343 3.81194903 27.90625 11.5859375 C33.27813197 17.77963723 33.5895125 23.34670692 33.41015625 31.29296875 C32.66559655 38.02237027 29.99700689 42.69341751 24.75 46.9375 C15.87884847 52.43458108 3.95663111 52.15492708 -6.01171875 50.5 C-11.25114994 49.12161452 -14.5434479 47.34856554 -18 43 C-19.55024464 39.89951072 -19.28992015 37.42105782 -19 34 C-17.4375 31.0625 -17.4375 31.0625 -15 29 C-11.29760815 28.52006032 -8.7619588 28.71739046 -5.26171875 30.015625 C-1.43481288 31.17057144 1.82176677 31.23057955 5.8125 31.1875 C6.49248047 31.18685547 7.17246094 31.18621094 7.87304688 31.18554688 C11.22142954 31.43591117 11.22142954 31.43591117 14 30 C14.04063832 28.33382885 14.042721 26.66611905 14 25 C13.10796875 24.69707031 12.2159375 24.39414062 11.296875 24.08203125 C10.12640625 23.66308594 8.9559375 23.24414062 7.75 22.8125 C6.58984375 22.40644531 5.4296875 22.00039063 4.234375 21.58203125 C0.63755103 19.82271518 -0.92781591 18.40322205 -3 15 C-3.92874006 10.31973513 -3.55925687 6.16511848 -1.5 1.875 C-1.005 1.25625 -0.51 0.6375 0 0 Z " fill="#ECECEC" transform="translate(948,509)"/>
<path d="M0 0 C1.26650391 -0.02900391 2.53300781 -0.05800781 3.83789062 -0.08789062 C5.05798828 -0.09626953 6.27808594 -0.10464844 7.53515625 -0.11328125 C8.64383057 -0.12786377 9.75250488 -0.14244629 10.89477539 -0.1574707 C14.62483324 0.41866356 16.27475038 1.68891293 18.9375 4.3125 C19.6015625 6.49609375 19.6015625 6.49609375 19.5625 8.75 C19.57539062 9.49121094 19.58828125 10.23242188 19.6015625 10.99609375 C18.51623983 14.78195458 17.19759049 16.05763693 13.9375 18.3125 C9.8162253 18.92410987 5.77957821 18.78283027 1.625 18.625 C0.50287109 18.60244141 -0.61925781 18.57988281 -1.77539062 18.55664062 C-4.53912536 18.49783776 -7.30012554 18.41570401 -10.0625 18.3125 C-10.04155273 18.97781738 -10.02060547 19.64313477 -9.99902344 20.32861328 C-9.91549391 23.36475302 -9.86372397 26.40065043 -9.8125 29.4375 C-9.77898438 30.48421875 -9.74546875 31.5309375 -9.7109375 32.609375 C-9.63221152 38.82872775 -9.80222517 42.62619769 -14.0625 47.3125 C-17.20121188 48.88185594 -19.60105822 48.66451103 -23.0625 48.3125 C-26.45577562 45.69438975 -27.89153486 44.18382398 -28.7253418 39.93432617 C-28.73734619 38.67080322 -28.74935059 37.40728027 -28.76171875 36.10546875 C-28.76887405 35.42124344 -28.77602936 34.73701813 -28.78340149 34.03205872 C-28.79115765 32.5890126 -28.78621011 31.14584858 -28.76928711 29.70288086 C-28.75013231 27.51511204 -28.78937605 25.33377109 -28.83398438 23.14648438 C-28.87613125 15.93978023 -28.67286585 10.26022461 -23.54614258 4.6887207 C-23.05654053 4.23456787 -22.56693848 3.78041504 -22.0625 3.3125 C-21.4025 2.6525 -20.7425 1.9925 -20.0625 1.3125 C-13.4629851 -0.16967738 -6.72947718 0.05152739 0 0 Z " fill="#EFEFEF" transform="translate(791.0625,511.6875)"/>
<path d="M0 0 C1.54179932 -0.01891296 1.54179932 -0.01891296 3.11474609 -0.03820801 C4.77111084 -0.02606262 4.77111084 -0.02606262 6.4609375 -0.01367188 C8.16950928 -0.01941223 8.16950928 -0.01941223 9.91259766 -0.02526855 C12.31999597 -0.02798962 14.72742376 -0.02061498 17.13476562 -0.00390625 C20.82228432 0.01749887 24.50785449 -0.0037032 28.1953125 -0.02929688 C30.53385847 -0.02665364 32.87240323 -0.02152874 35.2109375 -0.01367188 C36.31518066 -0.0217688 37.41942383 -0.02986572 38.55712891 -0.03820801 C39.58499512 -0.02559937 40.61286133 -0.01299072 41.671875 0 C43.02611572 0.00477356 43.02611572 0.00477356 44.40771484 0.00964355 C47.59876989 0.67714708 48.80732262 2.02205752 50.8359375 4.51757812 C51.58073961 7.57893387 51.39795847 10.42646279 50.8359375 13.51757812 C49.04200082 16.38787681 47.85330474 18.00889451 44.8359375 19.51757812 C41.17014578 19.75180214 37.51061678 19.91118451 33.83984375 20.03515625 C24.71538164 20.31222113 24.71538164 20.31222113 16.77734375 24.24414062 C16.32230469 24.870625 15.86726562 25.49710937 15.3984375 26.14257812 C14.55166127 27.2731513 13.69962213 28.39986861 12.8359375 29.51757812 C12.5059375 29.51757812 12.1759375 29.51757812 11.8359375 29.51757812 C11.8359375 25.88757813 11.8359375 22.25757813 11.8359375 18.51757812 C10.64355469 18.55238281 9.45117188 18.5871875 8.22265625 18.62304688 C6.65626408 18.65118566 5.08985669 18.67848572 3.5234375 18.70507812 C2.73775391 18.73021484 1.95207031 18.75535156 1.14257812 18.78125 C0.38525391 18.79091797 -0.37207031 18.80058594 -1.15234375 18.81054688 C-1.84884033 18.82625732 -2.54533691 18.84196777 -3.26293945 18.8581543 C-5.77005764 18.40901729 -6.60779934 17.49788172 -8.1640625 15.51757812 C-9.37307259 11.89054786 -9.95066725 8.2774045 -9.1640625 4.51757812 C-6.2841004 0.97673921 -4.542119 0.0160105 0 0 Z " fill="#EDEDED" transform="translate(990.1640625,482.482421875)"/>
<path d="M0 0 C1.60546875 1.77734375 1.60546875 1.77734375 2.98046875 5.27734375 C2.49859561 9.77482643 0.79784012 12.58497238 -2.39453125 15.77734375 C-8.50831624 16.00805262 -8.50831624 16.00805262 -11.28515625 15.28515625 C-16.50093888 14.02950488 -22.35679829 13.95357936 -27.33203125 15.96484375 C-31.62672402 19.61051526 -31.62672402 19.61051526 -33.71655273 24.68286133 C-33.78733091 26.83164641 -33.74432553 28.94234767 -33.64453125 31.08984375 C-33.61746094 32.20069336 -33.61746094 32.20069336 -33.58984375 33.33398438 C-33.54300462 35.14900085 -33.47126914 36.96334541 -33.39453125 38.77734375 C-36.97153665 37.54452185 -39.16666466 36.38530041 -41.58203125 33.46484375 C-42.07058594 32.89121094 -42.55914063 32.31757812 -43.0625 31.7265625 C-47.4576941 25.29488551 -47.05829835 18.29152775 -46.39453125 10.77734375 C-44.91158376 4.81739656 -41.41536838 1.49120453 -36.58984375 -2.09375 C-26.99414237 -7.0281943 -8.55945093 -6.43852504 0 0 Z " fill="#EBEBEB" transform="translate(976.39453125,487.22265625)"/>
<path d="M0 0 C0.89489136 -0.0038269 1.78978271 -0.00765381 2.71179199 -0.01159668 C4.60132982 -0.0143152 6.49090532 -0.00695816 8.38037109 0.00976562 C11.2713619 0.03117677 14.15986767 0.00996266 17.05078125 -0.015625 C18.88802631 -0.01298171 20.72526983 -0.00785671 22.5625 0 C23.85794739 -0.01214539 23.85794739 -0.01214539 25.17956543 -0.02453613 C31.15780773 0.0687947 31.15780773 0.0687947 34.31982422 2.41430664 C36.06273402 4.93899272 36.37801225 6.41436687 36.40625 9.46875 C36.45652344 10.71978516 36.45652344 10.71978516 36.5078125 11.99609375 C35.65150017 14.98397924 34.38476148 16.69317776 31.90283203 18.57397461 C27.22163321 20.6861703 21.93130553 20.02807766 16.90625 19.84375 C15.7409375 19.82119141 14.575625 19.79863281 13.375 19.77539062 C10.50909055 19.71666297 7.64584078 19.63457875 4.78125 19.53125 C4.78125 21.18125 4.78125 22.83125 4.78125 24.53125 C4.18957031 24.61761719 3.59789062 24.70398438 2.98828125 24.79296875 C-2.62288933 25.7907136 -5.45861525 27.0190883 -9.21875 31.53125 C-10.54357942 32.87303336 -11.87559768 34.20780851 -13.21875 35.53125 C-13.31780303 31.18967948 -13.39030301 26.84871146 -13.43847656 22.50634766 C-13.45856301 21.0299941 -13.48583801 19.55371981 -13.52050781 18.07763672 C-13.56916184 15.95260038 -13.59174673 13.82861766 -13.609375 11.703125 C-13.63032227 10.4253418 -13.65126953 9.14755859 -13.67285156 7.83105469 C-13.21875 4.53125 -13.21875 4.53125 -11.77050781 2.11621094 C-7.93073316 -0.26876964 -4.43821924 -0.04161025 0 0 Z " fill="#EDEDED" transform="translate(776.21875,482.46875)"/>
<path d="M0 0 C3.18689095 0.18746417 4.67148132 0.27879618 7.1875 2.1875 C10.87386773 7.71846226 10.57769406 12.87515834 10.48046875 19.2734375 C10.47622391 20.33035797 10.47197906 21.38727844 10.46760559 22.47622681 C10.45086702 25.8385814 10.41322289 29.20032779 10.375 32.5625 C10.35994697 34.84764757 10.34625964 37.13280457 10.33398438 39.41796875 C10.3009793 45.0080186 10.25082772 50.59771584 10.1875 56.1875 C4.65428983 56.29974889 1.06539197 55.98777132 -3.8125 53.1875 C-7.95675427 49.05806116 -9.39103903 45.20513898 -9.50723267 39.42404175 C-9.49711151 38.60090485 -9.48699036 37.77776794 -9.4765625 36.9296875 C-9.48134613 36.0636087 -9.48612976 35.19752991 -9.49105835 34.3052063 C-9.49444375 32.48486501 -9.48533694 30.66446179 -9.46435547 28.84423828 C-9.43750241 26.06275005 -9.46418046 23.2852724 -9.49609375 20.50390625 C-9.49279068 18.7291578 -9.48638658 16.95441183 -9.4765625 15.1796875 C-9.48668365 14.35250214 -9.49680481 13.52531677 -9.50723267 12.67306519 C-9.41846473 8.2920132 -9.22805305 6.69030528 -6.33349609 3.18798828 C-5.50156738 2.52782715 -4.66963867 1.86766602 -3.8125 1.1875 C-2.8125 0.1875 -2.8125 0.1875 0 0 Z " fill="#F68D68" transform="translate(940.8125,397.8125)"/>
<path d="M0 0 C0.07622102 6.44116617 0.12867158 12.8822155 0.16479492 19.32373047 C0.17985806 21.51387885 0.20031259 23.70399719 0.22631836 25.89404297 C0.26280989 29.04662503 0.27975139 32.19880737 0.29296875 35.3515625 C0.30845261 36.32678864 0.32393646 37.30201477 0.33988953 38.30679321 C0.34119556 43.61237604 0.08011616 47.46159277 -3 52 C-6.14456551 54.09637701 -8.16094676 54.36556445 -11.8671875 54.65625 C-15.32436329 53.5925036 -17.21768483 51.0131908 -19 48 C-19.46742221 45.04411098 -19.6590567 42.68832019 -19.59375 39.75 C-19.59379028 38.97366211 -19.59383057 38.19732422 -19.59387207 37.39746094 C-19.58853423 35.76358907 -19.57102576 34.12971635 -19.54199219 32.49609375 C-19.50011788 30.00700717 -19.50093033 27.52062981 -19.5078125 25.03125 C-19.49731875 23.43748136 -19.48437963 21.84372655 -19.46875 20.25 C-19.46854858 19.51233398 -19.46834717 18.77466797 -19.46813965 18.01464844 C-19.34519888 12.59902999 -18.17712555 8.44418628 -14.53515625 4.35546875 C-9.3517536 0.24449423 -6.45091072 -0.02629447 0 0 Z " fill="#EBEBEB" transform="translate(1021,506)"/>
<path d="M0 0 C2.69990662 1.79993774 4.5418865 3.083773 6 6 C6.09016377 7.60354452 6.11756075 9.21082222 6.11352539 10.81689453 C6.11344986 11.81778107 6.11337433 12.8186676 6.11329651 13.84988403 C6.10813522 14.93325043 6.10297394 16.01661682 6.09765625 17.1328125 C6.0962413 18.23978485 6.09482635 19.3467572 6.09336853 20.48727417 C6.08775772 24.03320993 6.07520337 27.57908323 6.0625 31.125 C6.05748639 33.52473867 6.05292325 35.92447833 6.04882812 38.32421875 C6.03778478 44.21616725 6.0210361 50.10807916 6 56 C4.5583886 55.84829106 3.1170295 55.69418342 1.67578125 55.5390625 C0.87309814 55.45350098 0.07041504 55.36793945 -0.7565918 55.27978516 C-3.59610454 54.92565722 -5.55729781 54.53541281 -8 53 C-11.86351761 47.47646124 -12.59669765 43.39562533 -12.53125 36.7421875 C-12.5350769 35.8761087 -12.53890381 35.01002991 -12.54284668 34.1177063 C-12.54555499 32.29737171 -12.53826988 30.47699749 -12.52148438 28.65673828 C-12.50000576 25.87574567 -12.52134851 23.09732073 -12.546875 20.31640625 C-12.54423255 18.54166099 -12.53910928 16.76691732 -12.53125 14.9921875 C-12.53934692 14.16500214 -12.54744385 13.33781677 -12.55578613 12.48556519 C-12.49068301 8.46919122 -12.2992607 6.47040903 -10.09179688 3.00048828 C-6.75274817 -0.1928083 -4.57823255 -0.44884633 0 0 Z " fill="#F47A67" transform="translate(996,398)"/>
<path d="M0 0 C0.77923828 0.61488281 0.77923828 0.61488281 1.57421875 1.2421875 C2.27160156 1.78101563 2.96898437 2.31984375 3.6875 2.875 C4.37199219 3.40867187 5.05648437 3.94234375 5.76171875 4.4921875 C10.46693007 7.6618412 14.23553374 8.24017623 19.875 8.23828125 C21.18984375 8.25439453 22.5046875 8.27050781 23.859375 8.28710938 C25.9331709 8.30357197 28.00622207 8.31247882 30.08007812 8.30541992 C32.09514268 8.30279365 34.11016636 8.33266368 36.125 8.36328125 C37.32382812 8.36626221 38.52265625 8.36924316 39.7578125 8.37231445 C43.89293874 9.1728724 45.37850975 10.77932065 48 14 C49.13815192 17.95358035 48.33894834 21.30736644 46.5625 24.9375 C45 27 45 27 44 28 C38.49709616 28.29237299 32.99161801 28.31406277 27.48168945 28.35009766 C25.62414009 28.36665249 23.7666543 28.39393645 21.90942383 28.43212891 C19.23485179 28.4868723 16.56177544 28.50876778 13.88671875 28.5234375 C13.05742355 28.54610687 12.22812836 28.56877625 11.373703 28.59213257 C5.59113399 28.57092973 5.59113399 28.57092973 2.50708008 25.59228516 C0.44892113 22.05210506 -0.1222058 20.28616322 -0.09765625 16.2109375 C-0.09443359 15.26992188 -0.09121094 14.32890625 -0.08789062 13.359375 C-0.07951172 12.37453125 -0.07113281 11.3896875 -0.0625 10.375 C-0.05798828 9.38242187 -0.05347656 8.38984375 -0.04882812 7.3671875 C-0.03702145 4.9113984 -0.020554 2.45572896 0 0 Z " fill="#F28B67" transform="translate(932,449)"/>
<path d="M0 0 C0.44730469 0.40992188 0.89460937 0.81984375 1.35546875 1.2421875 C2.26232422 2.05042969 2.26232422 2.05042969 3.1875 2.875 C3.77917969 3.40867187 4.37085938 3.94234375 4.98046875 4.4921875 C9.53153204 7.89008002 13.50007191 8.24009738 19.09375 8.23828125 C20.46745787 8.25369422 21.84115599 8.26999735 23.21484375 8.28710938 C25.36106032 8.30357337 27.50655731 8.31247843 29.65283203 8.30541992 C31.73811743 8.30279362 33.82125282 8.3309444 35.90625 8.36328125 C37.14697266 8.36626221 38.38769531 8.36924316 39.66601562 8.37231445 C43.86992372 9.16377958 45.34743532 10.71986376 48 14 C49.13069725 17.92768519 48.32700117 21.30140659 46.625 24.9375 C45 27 45 27 43 28 C37.47157289 28.3082565 31.94241588 28.35637159 26.40625 28.4050293 C24.55547457 28.42663684 22.70480208 28.46077254 20.85449219 28.50756836 C18.18638493 28.57443762 15.52038845 28.6020022 12.8515625 28.62109375 C12.02540436 28.64892441 11.19924622 28.67675507 10.34805298 28.70542908 C8.08300706 28.69731026 6.18078802 28.61339145 4 28 C0.60709398 24.37550636 -0.50629884 21.51770087 -0.390625 16.6015625 C-0.37773438 15.62832031 -0.36484375 14.65507812 -0.3515625 13.65234375 C-0.31804688 12.65332031 -0.28453125 11.65429688 -0.25 10.625 C-0.23195313 9.60277344 -0.21390625 8.58054687 -0.1953125 7.52734375 C-0.14839491 5.01725251 -0.08276729 2.50912236 0 0 Z " fill="#F38B67" transform="translate(984,449)"/>
<path d="M0 0 C15.65462579 0.3792971 30.60443879 6.32043979 45 12 C46.00417969 12.37253906 47.00835938 12.74507812 48.04296875 13.12890625 C52.66483909 14.86978799 56.32739947 16.5722395 60 20 C54.93356341 19.09426832 50.14651376 17.50867974 45.25390625 15.9375 C22.84777586 9.48195223 -2.34992435 15.31448595 -23.37890625 23.75390625 C-27 25 -27 25 -30 24 C-28.35 22.35 -26.7 20.7 -25 19 C-26.66924071 15.95865509 -26.66924071 15.95865509 -29 15 C-28.3203125 13.078125 -28.3203125 13.078125 -27 11 C-24.6171875 10.171875 -24.6171875 10.171875 -21.875 9.75 C-20.96492187 9.60046875 -20.05484375 9.4509375 -19.1171875 9.296875 C-18.06917969 9.14992187 -18.06917969 9.14992187 -17 9 C-16.67 8.01 -16.34 7.02 -16 6 C-14.89591797 6.21269531 -14.89591797 6.21269531 -13.76953125 6.4296875 C-8.23211634 7.49573915 -8.23211634 7.49573915 -3.15625 5.765625 C-0.88018854 3.1921789 -0.88018854 3.1921789 0 0 Z " fill="#3D89BC" transform="translate(687,183)"/>
<path d="M0 0 C2.56024544 1.79995788 4.81419535 3.763531 7 6 C5 7 5 7 3.1953125 6.546875 C-0.60696217 5.08335796 -3.89071111 3.72062778 -7 1 C-6.505 2.485 -6.505 2.485 -6 4 C-6.71542969 4.00515625 -7.43085937 4.0103125 -8.16796875 4.015625 C-18.56075926 4.8223099 -24.42169508 10.44514045 -31 18 C-36.70705693 24.84961854 -37.16457762 30.69055051 -37.0625 39.375 C-37.05798828 40.11105469 -37.05347656 40.84710938 -37.04882812 41.60546875 C-37.03715142 43.40368158 -37.01922011 45.20185197 -37 47 C-42.19627756 42.1687502 -43.65252812 37.62542948 -44.32421875 30.6171875 C-44.64396899 20.40723165 -42.65235704 13.12983809 -35.703125 5.56640625 C-25.57803888 -3.74588626 -12.53415922 -5.71256338 0 0 Z " fill="#F56467" transform="translate(674,307)"/>
<path d="M0 0 C15.00311632 -0.77012194 25.66328601 4.23451479 37 14 C37.8125 16.25 37.8125 16.25 38 18 C33.66252276 21.2872613 29.97606732 21.34807446 24.75 20.9375 C23.61437622 20.85786011 23.61437622 20.85786011 22.45581055 20.77661133 C16.69115976 20.2730483 11.96683905 19.06395915 7 16 C6.38382813 15.64292969 5.76765625 15.28585937 5.1328125 14.91796875 C3.4375 13.875 3.4375 13.875 1 12 C1 11.34 1 10.68 1 10 C0.34 10 -0.32 10 -1 10 C-1.125 2.25 -1.125 2.25 0 0 Z " fill="#E7E27C" transform="translate(668,665)"/>
<path d="M0 0 C1.65 0.33 3.3 0.66 5 1 C5 18.16 5 35.32 5 53 C0 52 0 52 -2.27929688 49.01611328 C-4.48815836 44.64520706 -4.57868613 40.5645662 -4.53125 35.7421875 C-4.5350769 34.8761087 -4.53890381 34.01002991 -4.54284668 33.1177063 C-4.54555499 31.29737171 -4.53826988 29.47699749 -4.52148438 27.65673828 C-4.50000576 24.87574567 -4.52134851 22.09732073 -4.546875 19.31640625 C-4.54423255 17.54166099 -4.53910928 15.76691732 -4.53125 13.9921875 C-4.53934692 13.16500214 -4.54744385 12.33781677 -4.55578613 11.48556519 C-4.47317367 6.38899663 -3.7942637 3.73868734 0 0 Z " fill="#F69D68" transform="translate(988,399)"/>
<path d="M0 0 C0.76441406 -0.01675781 1.52882813 -0.03351563 2.31640625 -0.05078125 C5.01000739 0.41055375 5.83839042 1.11678072 7.4375 3.3125 C8.70262111 7.58828908 8.91731654 11.21577649 7.125 15.3125 C5.4375 17.3125 5.4375 17.3125 3.4375 18.3125 C-1.01156472 18.68325539 -3.5708811 18.77795377 -7.625 16.875 C-11.52539451 13.47252819 -14.73239951 9.6497546 -17.5625 5.3125 C-17.5625 4.6525 -17.5625 3.9925 -17.5625 3.3125 C-16.95921875 3.26351563 -16.3559375 3.21453125 -15.734375 3.1640625 C-14.93515625 3.08929688 -14.1359375 3.01453125 -13.3125 2.9375 C-12.12914062 2.83308594 -12.12914062 2.83308594 -10.921875 2.7265625 C-8.54838859 2.42800475 -8.54838859 2.42800475 -6.55078125 1.29296875 C-4.22567416 0.14640317 -2.58068446 0.01309992 0 0 Z " fill="#F09066" transform="translate(806.5625,457.6875)"/>
<path d="M0 0 C6.94736842 -0.31578947 6.94736842 -0.31578947 10 2 C13.68636773 7.53096226 13.39019406 12.68765834 13.29296875 19.0859375 C13.28872391 20.14285797 13.28447906 21.19977844 13.28010559 22.28872681 C13.26336702 25.6510814 13.22572289 29.01282779 13.1875 32.375 C13.17244697 34.66014757 13.15875964 36.94530457 13.14648438 39.23046875 C13.1134793 44.8205186 13.06332772 50.41021584 13 56 C10.69 56 8.38 56 6 56 C6.33 38.18 6.66 20.36 7 2 C4.36 2 1.72 2 -1 2 C-0.67 1.34 -0.34 0.68 0 0 Z " fill="#E45F60" transform="translate(938,398)"/>
<path d="M0 0 C1.27230469 0.00902344 2.54460938 0.01804687 3.85546875 0.02734375 C5.31919922 0.04474609 5.31919922 0.04474609 6.8125 0.0625 C6.8125 0.3925 6.8125 0.7225 6.8125 1.0625 C5.1109375 1.2790625 5.1109375 1.2790625 3.375 1.5 C0.00472799 1.67421478 0.00472799 1.67421478 -1.1875 3.0625 C-1.41825082 4.40997084 -1.59903063 5.76627565 -1.75 7.125 C-1.894375 8.424375 -2.03875 9.72375 -2.1875 11.0625 C-1.5275 11.0625 -0.8675 11.0625 -0.1875 11.0625 C-0.1875 11.7225 -0.1875 12.3825 -0.1875 13.0625 C0.69615234 13.495625 0.69615234 13.495625 1.59765625 13.9375 C3.517132 14.91247181 5.38914872 15.97982289 7.25 17.0625 C14.78161624 20.83534701 24.47132483 21.83483103 32.8125 21.0625 C34.98726401 19.51911909 35.63082637 18.42584727 36.8125 16.0625 C37.8025 17.3825 38.7925 18.7025 39.8125 20.0625 C38.34135265 23.49517716 36.97785398 26.00501991 33.8125 28.0625 C30.35898975 27.96422938 27.13480836 26.95537037 23.8125 26.0625 C22.48011372 25.74727197 21.14670626 25.4363401 19.8125 25.12890625 C18.39557668 24.79535924 16.97890951 24.46072223 15.5625 24.125 C14.88928711 23.96773437 14.21607422 23.81046875 13.52246094 23.6484375 C7.11433979 22.0646211 2.74200001 20.35878263 -1.1875 15.0625 C-3.61133077 13.89296584 -3.61133077 13.89296584 -6.1875 13.0625 C-7.5075 12.4025 -8.8275 11.7425 -10.1875 11.0625 C-10.1875 7.7625 -10.1875 4.4625 -10.1875 1.0625 C-6.62704823 -0.12431726 -3.74941663 -0.03439832 0 0 Z " fill="#9B9663" transform="translate(669.1875,663.9375)"/>
<path d="M0 0 C1.5 1.125 1.5 1.125 3 3 C3.1875 6.1875 3.1875 6.1875 3 9 C3.66 9 4.32 9 5 9 C5 10.98 5 12.96 5 15 C4.34 15 3.68 15 3 15 C2.7525 16.0725 2.505 17.145 2.25 18.25 C0.99805237 22.00584289 0.20836924 23.73526877 -3 26 C-6.19868336 26.10318333 -7.20888342 24.80640073 -9.5625 22.625 C-10.7690625 21.325625 -10.7690625 21.325625 -12 20 C-12.598125 19.401875 -13.19625 18.80375 -13.8125 18.1875 C-14.204375 17.795625 -14.59625 17.40375 -15 17 C-12.46332306 11.2924769 -9.7697714 8.27754134 -4 6 C-2.77472052 4.04978917 -2.77472052 4.04978917 -2 2 C-1.34 1.34 -0.68 0.68 0 0 Z " fill="#5E8FAD" transform="translate(634,724)"/>
<path d="M0 0 C5.1000292 4.89323588 7.21737391 11.37097051 7.5625 18.375 C7.22322749 26.35921298 4.22882956 34.02060918 -1.1875 39.9375 C-9.40842526 47.10446048 -16.84906069 48.69195721 -27.4609375 48.37109375 C-30.5886477 48.04313297 -32.39077431 47.66589025 -35 46 C-30.66750142 44.73963678 -27.13448237 43.89008316 -22.625 44.1875 C-16.27081788 44.31919289 -10.88847352 41.54828927 -6.17578125 37.390625 C-2.67286561 33.54359422 0.34624641 28.96126078 2 24 C1.505 23.01 1.505 23.01 1 22 C0.84777027 20.33434251 0.75082785 18.66343504 0.68359375 16.9921875 C0.64169922 16.00605469 0.59980469 15.01992188 0.55664062 14.00390625 C0.51732422 12.97136719 0.47800781 11.93882812 0.4375 10.875 C0.39431641 9.83472656 0.35113281 8.79445313 0.30664062 7.72265625 C0.2003712 5.14857472 0.09833417 2.57439492 0 0 Z " fill="#F45B67" transform="translate(683,316)"/>
<path d="M0 0 C0 16.5 0 33 0 50 C-3 49 -3 49 -4.66040039 47.00610352 C-6.48760299 42.90580361 -6.44918068 39.34429673 -6.43359375 34.90234375 C-6.4388356 34.03106339 -6.44407745 33.15978302 -6.44947815 32.26210022 C-6.45588471 30.42563948 -6.45457907 28.58913763 -6.44604492 26.75268555 C-6.43751702 23.94310705 -6.46634275 21.13555062 -6.49804688 18.32617188 C-6.49965861 16.53906311 -6.49908189 14.75195075 -6.49609375 12.96484375 C-6.50732773 12.12622299 -6.51856171 11.28760223 -6.53013611 10.42356873 C-6.46071447 4.61886931 -6.46071447 4.61886931 -4.09399414 1.43969727 C-2 0 -2 0 0 0 Z " fill="#ECA465" transform="translate(938,400)"/>
<path d="M0 0 C2.56024544 1.79995788 4.81419535 3.763531 7 6 C5 7 5 7 3.1953125 6.51171875 C2.17050781 6.10373047 2.17050781 6.10373047 1.125 5.6875 C0.44695313 5.42324219 -0.23109375 5.15898437 -0.9296875 4.88671875 C-3 4 -3 4 -4.93359375 2.9453125 C-10.54614789 0.37775465 -17.14889965 0.41491247 -22.9375 2.3125 C-31.38273672 5.54852529 -35.99998562 10.01333476 -39.9296875 18.21875 C-41.65211312 22.69454212 -42.39604277 27.258485 -43 32 C-41.68 32.33 -40.36 32.66 -39 33 C-38.93941406 33.67546875 -38.87882813 34.3509375 -38.81640625 35.046875 C-38.69072266 36.38492188 -38.69072266 36.38492188 -38.5625 37.75 C-38.48128906 38.63171875 -38.40007813 39.5134375 -38.31640625 40.421875 C-38.03761535 42.69350452 -37.61209423 44.79851823 -37 47 C-41.4459317 43.47391624 -42.93378262 39.41546383 -44 34 C-45.01343314 23.42610724 -43.82507751 15.63951147 -37.25 7.25 C-27.38643794 -3.48534154 -13.21326803 -6.02207374 0 0 Z " fill="#F45767" transform="translate(674,307)"/>
<path d="M0 0 C6.93 0.495 6.93 0.495 14 1 C14.66 2.98 15.32 4.96 16 7 C11.54138033 9.11850915 7.28200661 9.5842869 2.4375 10.0625 C-3.83747695 10.69856719 -3.83747695 10.69856719 -10 12 C-10.33 11.34 -10.66 10.68 -11 10 C-11.66 9.67 -12.32 9.34 -13 9 C-12.3203125 7.078125 -12.3203125 7.078125 -11 5 C-8.6171875 4.171875 -8.6171875 4.171875 -5.875 3.75 C-4.50988281 3.52570313 -4.50988281 3.52570313 -3.1171875 3.296875 C-2.41851563 3.19890625 -1.71984375 3.1009375 -1 3 C-0.67 2.01 -0.34 1.02 0 0 Z " fill="#4198D0" transform="translate(671,189)"/>
<path d="M0 0 C1.485 0.99 1.485 0.99 3 2 C4.010625 2.28875 5.02125 2.5775 6.0625 2.875 C9 4 9 4 10.18359375 6.0703125 C10.45300781 6.70710937 10.72242188 7.34390625 11 8 C17.37637987 7.67096972 22.36162502 7.24206561 28 4 C31 4 31 4 34 6 C34.6875 8.125 34.6875 8.125 35 10 C30.66231259 13.28742058 26.97622364 13.34760261 21.75 12.9375 C20.99436768 12.88513184 20.23873535 12.83276367 19.46020508 12.77880859 C13.71644982 12.28064151 8.94062243 11.07776479 4 8 C3.175 7.505 2.35 7.01 1.5 6.5 C-0.28703797 4.71296203 -0.74998676 3.50013243 -1 1 C-0.67 0.67 -0.34 0.34 0 0 Z " fill="#CDC175" transform="translate(671,673)"/>
<path d="M0 0 C0.33 0 0.66 0 1 0 C0.98839844 0.62648438 0.97679687 1.25296875 0.96484375 1.8984375 C0.95582031 2.71570313 0.94679688 3.53296875 0.9375 4.375 C0.92589844 5.18710937 0.91429687 5.99921875 0.90234375 6.8359375 C0.85533666 9.04937142 0.85533666 9.04937142 2 11 C-1.7633546 19.14173214 -6.59740513 25.72982061 -14.875 29.375 C-19.45379698 31.05389223 -23.15907568 31.35858699 -28 31 C-28 30.34 -28 29.68 -28 29 C-26.02 28.67 -24.04 28.34 -22 28 C-21.67 27.01 -21.34 26.02 -21 25 C-18.10441559 23.5522078 -16.25811062 23 -13 23 C-9.91908645 22.34495729 -9.91908645 22.34495729 -8.9375 20.125 C-8.628125 19.42375 -8.31875 18.7225 -8 18 C-7.34 17.01 -6.68 16.02 -6 15 C-5.690625 14.13375 -5.38125 13.2675 -5.0625 12.375 C-4.711875 11.59125 -4.36125 10.8075 -4 10 C-3.01 9.67 -2.02 9.34 -1 9 C-1.020625 7.700625 -1.04125 6.40125 -1.0625 5.0625 C-1.08399454 3.70834367 -1.07148199 2.35243917 -1 1 C-0.67 0.67 -0.34 0.34 0 0 Z " fill="#F67168" transform="translate(684,330)"/>
<path d="M0 0 C3 3 3 3 3.36076355 5.25895691 C3.35410172 6.1405397 3.34743988 7.0221225 3.34057617 7.93041992 C3.34034958 8.93123093 3.34012299 9.93204193 3.33988953 10.96318054 C3.32440567 12.04138565 3.30892181 13.11959076 3.29296875 14.23046875 C3.28872391 15.33602615 3.28447906 16.44158356 3.28010559 17.5806427 C3.26329437 21.11650812 3.22563685 24.65180645 3.1875 28.1875 C3.17245636 30.58267407 3.1587674 32.97785706 3.14648438 35.37304688 C3.11338285 41.24889185 3.06315893 47.12440542 3 53 C1.02 53 -0.96 53 -3 53 C-1.515 52.505 -1.515 52.505 0 52 C0 34.84 0 17.68 0 0 Z " fill="#E45760" transform="translate(999,401)"/>
<path d="M0 0 C1.41655793 -0.0272415 2.83327045 -0.04650467 4.25 -0.0625 C5.43335938 -0.07990234 5.43335938 -0.07990234 6.640625 -0.09765625 C8.90691002 -0.00385306 10.8288895 0.36758937 13 1 C13 1.66 13 2.32 13 3 C13.886875 2.896875 14.77375 2.79375 15.6875 2.6875 C21.71369384 2.66264972 27.71730491 5.28209166 33 8 C33.495 9.485 33.495 9.485 34 11 C30.25 12.125 30.25 12.125 28 11 C28 10.34 28 9.68 28 9 C27.05125 9.020625 26.1025 9.04125 25.125 9.0625 C22 9 22 9 20 8 C19.67 8.66 19.34 9.32 19 10 C17.35 9.34 15.7 8.68 14 8 C14 7.34 14 6.68 14 6 C11.69 6.33 9.38 6.66 7 7 C7 6.34 7 5.68 7 5 C5.68 4.67 4.36 4.34 3 4 C3 3.01 3 2.02 3 1 C2.01 0.67 1.02 0.34 0 0 Z " fill="#403D4E" transform="translate(659,685)"/>
<path d="M0 0 C0.33 0.66 0.66 1.32 1 2 C-0.18207031 2.04898437 -1.36414063 2.09796875 -2.58203125 2.1484375 C-7.62690384 2.78612895 -10.18787916 5.11262234 -13.6875 8.625 C-14.22955078 9.13417969 -14.77160156 9.64335937 -15.33007812 10.16796875 C-18.15831895 12.89044907 -20.54332533 15.66224654 -22.76953125 18.8984375 C-23.50558594 19.92195313 -24.24164062 20.94546875 -25 22 C-25.66 22 -26.32 22 -27 22 C-28.23902298 18.28293106 -27.63781397 17.54642689 -25.9375 14.125 C-20.56877726 3.96435944 -11.31154718 -0.21342542 0 0 Z " fill="#F67B68" transform="translate(663,310)"/>
<path d="M0 0 C1.43655854 -0.08131463 2.8744483 -0.13933559 4.3125 -0.1875 C5.51326172 -0.23970703 5.51326172 -0.23970703 6.73828125 -0.29296875 C9 0 9 0 10.73828125 1.23828125 C13.04787317 4.46312941 13.12931299 8.12061035 13 12 C11.66498121 15.05147152 10.97626566 16.51186717 8 18 C5.3276379 18.13415472 2.67749512 18.04318541 0 18 C0 17.67 0 17.34 0 17 C1.65 17 3.3 17 5 17 C5 11.72 5 6.44 5 1 C3.35 1 1.7 1 0 1 C0 0.67 0 0.34 0 0 Z " fill="#ED6D64" transform="translate(802,458)"/>
<path d="M0 0 C0.33 0 0.66 0 1 0 C1 13.86 1 27.72 1 42 C0.34 42 -0.32 42 -1 42 C-2.6301972 38.7396056 -2.16307421 35.1453944 -2.16796875 31.5625 C-2.17129715 30.72662354 -2.17462555 29.89074707 -2.17805481 29.02954102 C-2.18312107 27.26091055 -2.18546323 25.49227052 -2.18530273 23.72363281 C-2.1874912 21.01090865 -2.20565527 18.29858977 -2.22460938 15.5859375 C-2.2275429 13.86979306 -2.22952797 12.15364669 -2.23046875 10.4375 C-2.23765427 9.62289307 -2.24483978 8.80828613 -2.25224304 7.96899414 C-2.22882646 2.22882646 -2.22882646 2.22882646 0 0 Z " fill="#F5AF69" transform="translate(986,404)"/>
<path d="M0 0 C2.46258847 0.70978898 4.900615 1.5084245 7.3125 2.375 C12.83440697 4.31536785 18.26529914 5.83362016 24 7 C24.66 7.33 25.32 7.66 26 8 C26 8.99 26 9.98 26 11 C26.66 11.33 27.32 11.66 28 12 C25.69 12.33 23.38 12.66 21 13 C20.67 12.01 20.34 11.02 20 10 C16.73552029 8.86429586 16.73552029 8.86429586 13 8 C12.01 7.649375 11.02 7.29875 10 6.9375 C6.67856504 5.89955158 3.45004912 5.41400589 0 5 C0 4.34 0 3.68 0 3 C-2.97 2.67 -5.94 2.34 -9 2 C-5.44664843 -0.36890105 -4.19037233 -0.3504493 0 0 Z " fill="#776C63" transform="translate(672,683)"/>
<path d="M0 0 C2.125 0.375 2.125 0.375 4 1 C3.855625 2.16015625 3.71125 3.3203125 3.5625 4.515625 C2.21175282 15.72935245 0.96149461 26.78822036 3 38 C0.15562804 35.15562804 -0.12506037 32.62378397 -0.31640625 28.76953125 C-0.35830078 27.96708984 -0.40019531 27.16464844 -0.44335938 26.33789062 C-0.48267578 25.50451172 -0.52199219 24.67113281 -0.5625 23.8125 C-0.60568359 22.96751953 -0.64886719 22.12253906 -0.69335938 21.25195312 C-0.79931518 19.16815567 -0.9001502 17.08409897 -1 15 C-1.66 17.97 -2.32 20.94 -3 24 C-3.33 24 -3.66 24 -4 24 C-3.76276286 21.3903915 -3.52458109 18.78092504 -3.28125 16.171875 C-3.09573788 14.07971055 -2.92865062 11.98581948 -2.78125 9.890625 C-2.7090625 8.91609375 -2.636875 7.9415625 -2.5625 6.9375 C-2.50191406 6.03902344 -2.44132813 5.14054688 -2.37890625 4.21484375 C-2 2 -2 2 0 0 Z " fill="#211823" transform="translate(776,245)"/>
<path d="M0 0 C1.32 0.33 2.64 0.66 4 1 C0.32323232 5.72727273 0.32323232 5.72727273 -2 7.6875 C-6.89886217 13.35180939 -8.45948955 20.7031089 -9 28 C-7.68 28.33 -6.36 28.66 -5 29 C-4.93941406 29.67546875 -4.87882813 30.3509375 -4.81640625 31.046875 C-4.73261719 31.93890625 -4.64882813 32.8309375 -4.5625 33.75 C-4.48128906 34.63171875 -4.40007813 35.5134375 -4.31640625 36.421875 C-4.03761535 38.69350452 -3.61209423 40.79851823 -3 43 C-7.4459317 39.47391624 -8.93378262 35.41546383 -10 30 C-10.92068808 20.39378458 -10.33128379 12.68348946 -4.3984375 4.8984375 C-2.97967525 3.21071559 -1.53032036 1.5864321 0 0 Z " fill="#EF4F68" transform="translate(640,311)"/>
<path d="M0 0 C1.32 1.32 2.64 2.64 4 4 C2.7101576 6.87734073 1.49707907 9.03655919 -1 11 C-2.92773438 10.94335938 -2.92773438 10.94335938 -5.09375 10.34375 C-5.88910156 10.13363281 -6.68445313 9.92351563 -7.50390625 9.70703125 C-8.73947266 9.35705078 -8.73947266 9.35705078 -10 9 C-11.59360397 8.59317752 -13.18735271 8.18692172 -14.78125 7.78125 C-16.35482361 7.35659355 -17.92774347 6.92950717 -19.5 6.5 C-20.30953125 6.28730469 -21.1190625 6.07460938 -21.953125 5.85546875 C-23.98682118 5.29927332 -25.99647171 4.65661852 -28 4 C-28.33 3.34 -28.66 2.68 -29 2 C-28.30519531 2.14308594 -27.61039063 2.28617188 -26.89453125 2.43359375 C-15.03001677 4.853193 -15.03001677 4.853193 -3 5 C-0.94995161 3.7893443 -0.94995161 3.7893443 0 2 C0 1.34 0 0.68 0 0 Z " fill="#A6996F" transform="translate(705,680)"/>
<path d="M0 0 C2.125 7.625 2.125 7.625 1 11 C0.855625 11.70125 0.71125 12.4025 0.5625 13.125 C0.376875 13.74375 0.19125 14.3625 0 15 C-0.99 15.495 -0.99 15.495 -2 16 C-4.31 14.02 -6.62 12.04 -9 10 C-4 0 -4 0 0 0 Z " fill="#73BDD8" transform="translate(628,731)"/>
<path d="M0 0 C6.93 0.495 6.93 0.495 14 1 C13.67 2.32 13.34 3.64 13 5 C10.74183602 6.12908199 9.33417817 6.18036868 6.82421875 6.28125 C5.99599609 6.31863281 5.16777344 6.35601562 4.31445312 6.39453125 C3.44755859 6.42933594 2.58066406 6.46414062 1.6875 6.5 C-5.71518551 6.75055166 -5.71518551 6.75055166 -13 8 C-11 5 -11 5 -8.6171875 4.26953125 C-7.25980469 4.04330078 -7.25980469 4.04330078 -5.875 3.8125 C-4.96492187 3.65394531 -4.05484375 3.49539062 -3.1171875 3.33203125 C-2.06917969 3.16767578 -2.06917969 3.16767578 -1 3 C-0.67 2.01 -0.34 1.02 0 0 Z " fill="#4BB0DC" transform="translate(671,189)"/>
<path d="M0 0 C2.79672162 2.79672162 2.5061147 4.91119391 2.8125 8.8125 C2.92207031 10.03582031 3.03164063 11.25914062 3.14453125 12.51953125 C2.98679966 16.31787857 2.41309345 18.08764583 0 21 C-3 21 -3 21 -4.6875 19.5 C-5.120625 19.005 -5.55375 18.51 -6 18 C-4.68 17.67 -3.36 17.34 -2 17 C-2.020625 16.21625 -2.04125 15.4325 -2.0625 14.625 C-2 12 -2 12 -1 10 C-1.33 9.34 -1.66 8.68 -2 8 C-2.039992 6.00039988 -2.04346799 3.99952758 -2 2 C-1.34 2 -0.68 2 0 2 C0 1.34 0 0.68 0 0 Z " fill="#649CB9" transform="translate(630,728)"/>
<path d="M0 0 C0.66 0.33 1.32 0.66 2 1 C2.625 3.0625 2.625 3.0625 3 5 C-1.57920963 8.53018751 -5.14722892 8.27521274 -10.625 7.8125 C-11.388125 7.76802734 -12.15125 7.72355469 -12.9375 7.67773438 C-16.70213825 7.41024692 -18.80763257 7.12824495 -22 5 C-20.74703125 4.97421875 -19.4940625 4.9484375 -18.203125 4.921875 C-16.55204877 4.86558831 -14.90100845 4.8082411 -13.25 4.75 C-12.0125 4.72873047 -12.0125 4.72873047 -10.75 4.70703125 C-5.6888713 4.53289188 -5.6888713 4.53289188 -1.421875 1.953125 C-0.95265625 1.30859375 -0.4834375 0.6640625 0 0 Z " fill="#BBAE74" transform="translate(703,678)"/>
<path d="M0 0 C0.80050781 0.12761719 1.60101562 0.25523437 2.42578125 0.38671875 C3.23402344 0.50660156 4.04226563 0.62648437 4.875 0.75 C5.48988281 0.85699219 6.10476563 0.96398437 6.73828125 1.07421875 C5.73828125 4.07421875 5.73828125 4.07421875 2.90234375 5.49609375 C1.73445312 5.934375 0.5665625 6.37265625 -0.63671875 6.82421875 C-1.79945313 7.2728125 -2.9621875 7.72140625 -4.16015625 8.18359375 C-7.26171875 9.07421875 -7.26171875 9.07421875 -10.26171875 8.07421875 C-8.59505208 6.40755208 -6.92838542 4.74088542 -5.26171875 3.07421875 C-4.80796875 2.51734375 -4.35421875 1.96046875 -3.88671875 1.38671875 C-2.26171875 0.07421875 -2.26171875 0.07421875 0 0 Z " fill="#3571BB" transform="translate(667.26171875,198.92578125)"/>
<path d="M0 0 C0.33 0 0.66 0 1 0 C1.33 1.98 1.66 3.96 2 6 C2.99 6 3.98 6 5 6 C4.67 11.28 4.34 16.56 4 22 C3.67 22 3.34 22 3 22 C2.855625 21.2575 2.71125 20.515 2.5625 19.75 C2.09812508 17.47972261 1.58136431 15.24240521 1 13 C0.34 13 -0.32 13 -1 13 C-1.0272415 11.58344207 -1.04650467 10.16672955 -1.0625 8.75 C-1.07410156 7.96109375 -1.08570313 7.1721875 -1.09765625 6.359375 C-1.00385306 4.09308998 -0.63241063 2.1711105 0 0 Z " fill="#476382" transform="translate(638,720)"/>
<path d="M0 0 C4.29 0 8.58 0 13 0 C13 0.33 13 0.66 13 1 C11.2984375 1.2165625 11.2984375 1.2165625 9.5625 1.4375 C6.19222799 1.61171478 6.19222799 1.61171478 5 3 C4.76924918 4.34747084 4.58846937 5.70377565 4.4375 7.0625 C4.293125 8.361875 4.14875 9.66125 4 11 C4.66 11 5.32 11 6 11 C6 11.66 6 12.32 6 13 C2.96290884 11.98763628 1.8991396 11.48176649 0 9 C-0.39500857 5.95053384 -0.13430156 3.08893588 0 0 Z " fill="#B2AE68" transform="translate(663,664)"/>
<path d="M0 0 C10.62107847 1.77714896 20.99156742 3.958133 31 8 C27.52174632 9.15941789 26.33303814 8.78233126 22.8515625 7.85546875 C21.34335937 7.45811523 21.34335937 7.45811523 19.8046875 7.05273438 C18.75539063 6.76720703 17.70609375 6.48167969 16.625 6.1875 C15.5834375 5.91357422 14.541875 5.63964844 13.46875 5.35742188 C8.85253114 4.12662695 4.41370213 2.84494145 0 1 C0 0.67 0 0.34 0 0 Z " fill="#8E8465" transform="translate(672,683)"/>
<path d="M0 0 C2.74901652 0.85690064 5.33354759 1.89664038 8 3 C8 3.66 8 4.32 8 5 C10.475 5.495 10.475 5.495 13 6 C9.72814447 7.07310858 7.57052408 6.89263102 4.25 6.0625 C3.45078125 5.86785156 2.6515625 5.67320312 1.828125 5.47265625 C0.92320312 5.23869141 0.92320312 5.23869141 0 5 C0 4.34 0 3.68 0 3 C-2.97 2.67 -5.94 2.34 -9 2 C-5.42841717 -0.38105522 -4.21690421 -0.39782115 0 0 Z " fill="#696458" transform="translate(672,683)"/>
<path d="M0 0 C1.5 1.375 1.5 1.375 3 3 C3 3.66 3 4.32 3 5 C5.64 5.66 8.28 6.32 11 7 C9.68 7.33 8.36 7.66 7 8 C6.01 8.495 6.01 8.495 5 9 C3.35 7.68 1.7 6.36 0 5 C-0.33 10.94 -0.66 16.88 -1 23 C-1.33 23 -1.66 23 -2 23 C-2 16.07 -2 9.14 -2 2 C-1.34 2 -0.68 2 0 2 C0 1.34 0 0.68 0 0 Z " fill="#402C1B" transform="translate(985,446)"/>
<path d="M0 0 C3 2 3 2 3.6171875 3.98828125 C4.05858887 7.96758152 4.29875921 10.33458176 2.625 14.0625 C2.08875 14.701875 1.5525 15.34125 1 16 C0.67 16 0.34 16 0 16 C0 10.72 0 5.44 0 0 Z " fill="#E1565F" transform="translate(811,459)"/>
<path d="M0 0 C0.99 0.66 1.98 1.32 3 2 C1.90300781 2.12117188 0.80601562 2.24234375 -0.32421875 2.3671875 C-1.77868823 2.53609363 -3.23311304 2.70538481 -4.6875 2.875 C-5.40873047 2.95363281 -6.12996094 3.03226562 -6.87304688 3.11328125 C-10.89822622 3.59115642 -14.27572481 4.30216867 -18 6 C-19.32676508 6.35858516 -20.65835921 6.7018576 -22 7 C-16.46283478 0.30925869 -8.33385802 -1.13979941 0 0 Z " fill="#CA3F55" transform="translate(664,304)"/>
<path d="M0 0 C0.66 0.33 1.32 0.66 2 1 C-1.94932569 5.80323395 -5.73607858 9.88423427 -10.6875 13.6875 C-11.49574219 14.31011719 -12.30398438 14.93273437 -13.13671875 15.57421875 C-14.05904297 16.27998047 -14.05904297 16.27998047 -15 17 C-15 14 -15 14 -13.49609375 12.16796875 C-12.81675781 11.51441406 -12.13742187 10.86085937 -11.4375 10.1875 C-10.71433594 9.49011719 -9.99117187 8.79273438 -9.24609375 8.07421875 C-6.23324781 5.29192102 -3.1504983 2.62541525 0 0 Z " fill="#D1C96B" transform="translate(626,228)"/>
<path d="M0 0 C0.68359375 1.78125 0.68359375 1.78125 1 4 C-2.4387285 9.31545829 -8.15504901 12.8366963 -14 15 C-14.66 15 -15.32 15 -16 15 C-16 14.34 -16 13.68 -16 13 C-14.68 13 -13.36 13 -12 13 C-12 12.34 -12 11.68 -12 11 C-11.01 11 -10.02 11 -9 11 C-9 10.34 -9 9.68 -9 9 C-3.52380952 4 -3.52380952 4 -1 4 C-0.67 2.68 -0.34 1.36 0 0 Z " fill="#E44A60" transform="translate(684,348)"/>
<path d="M0 0 C6.45027515 0.26327654 9.47915791 2.50664023 14 7 C12 8 12 8 10.125 7.58203125 C4.30758367 5.47535659 4.30758367 5.47535659 2.625 2.875 C2.41875 2.25625 2.2125 1.6375 2 1 C1.34 0.67 0.68 0.34 0 0 Z " fill="#E24B5F" transform="translate(667,306)"/>
<path d="M0 0 C1.48828125 1.30078125 1.48828125 1.30078125 3 3 C3.1875 6.1875 3.1875 6.1875 3 9 C3.66 9 4.32 9 5 9 C5 10.98 5 12.96 5 15 C4.01 15 3.02 15 2 15 C-0.10428384 9.87080814 -0.21755666 5.4389165 0 0 Z " fill="#517896" transform="translate(634,724)"/>
<path d="M0 0 C1.41655793 -0.0272415 2.83327045 -0.04650467 4.25 -0.0625 C5.43335938 -0.07990234 5.43335938 -0.07990234 6.640625 -0.09765625 C8.90691002 -0.00385306 10.8288895 0.36758937 13 1 C13 1.66 13 2.32 13 3 C14.11375 2.95875 15.2275 2.9175 16.375 2.875 C20 3 20 3 22 5 C19.26967727 4.71703381 16.54107852 4.42396118 13.8125 4.125 C13.04357422 4.04636719 12.27464844 3.96773437 11.48242188 3.88671875 C7.34219296 3.42471896 3.80766499 2.8160807 0 1 C0 0.67 0 0.34 0 0 Z " fill="#504E52" transform="translate(659,685)"/>
<path d="M0 0 C1.32 0.33 2.64 0.66 4 1 C1.31316568 4.68195814 -1.11817781 6.69188951 -5 9 C-5.33 9.99 -5.66 10.98 -6 12 C-6.66 12 -7.32 12 -8 12 C-6.49087042 7.01987239 -3.44338151 3.75740058 0 0 Z " fill="#E5546D" transform="translate(640,311)"/>
<path d="M0 0 C0.99 0.66 1.98 1.32 3 2 C3 2.66 3 3.32 3 4 C-3.61809577 6.46254726 -10.00439516 6.18935472 -17 6 C-17 5.67 -17 5.34 -17 5 C-16.10796875 4.89042969 -15.2159375 4.78085937 -14.296875 4.66796875 C-13.12640625 4.50941406 -11.9559375 4.35085938 -10.75 4.1875 C-9.58984375 4.03667969 -8.4296875 3.88585937 -7.234375 3.73046875 C-4.01605334 3.00362557 -2.41668345 2.18338975 0 0 Z " fill="#D6CB7B" transform="translate(700,676)"/>
<path d="M0 0 C1.13598633 0.00483398 1.13598633 0.00483398 2.29492188 0.00976562 C3.47344727 0.02233398 3.47344727 0.02233398 4.67578125 0.03515625 C5.47306641 0.03966797 6.27035156 0.04417969 7.09179688 0.04882812 C9.05732382 0.06059775 11.0228121 0.07853277 12.98828125 0.09765625 C12.98828125 0.42765625 12.98828125 0.75765625 12.98828125 1.09765625 C11.98667969 1.23042969 10.98507812 1.36320313 9.953125 1.5 C8.61067471 1.67836752 7.26822692 1.85675395 5.92578125 2.03515625 C4.94061523 2.16567383 4.94061523 2.16567383 3.93554688 2.29882812 C-0.38403067 2.87335322 -4.69879452 3.47511452 -9.01171875 4.09765625 C-6.40841818 0.1927054 -4.41645306 -0.03320641 0 0 Z " fill="#449FD5" transform="translate(667.01171875,194.90234375)"/>
<path d="M0 0 C5.73842251 -0.20413361 10.60539047 -0.27141454 16 2 C15.67 2.66 15.34 3.32 15 4 C14.34 3.67 13.68 3.34 13 3 C12.67 3.66 12.34 4.32 12 5 C9.525 4.01 9.525 4.01 7 3 C7 2.34 7 1.68 7 1 C4.69 1.33 2.38 1.66 0 2 C0 1.34 0 0.68 0 0 Z " fill="#2B2B4A" transform="translate(666,690)"/>
<path d="M0 0 C3.22492816 3.22492816 3.15845551 6.20001728 3.1875 10.5625 C3.20167969 11.53316406 3.21585938 12.50382812 3.23046875 13.50390625 C3 16 3 16 1 18 C0.67 12.06 0.34 6.12 0 0 Z " fill="#D84E6F" transform="translate(687,324)"/>
<path d="M0 0 C0.66 0 1.32 0 2 0 C3.30089831 2.60179663 3.16840078 4.5969188 3.1875 7.5 C3.20167969 8.4796875 3.21585938 9.459375 3.23046875 10.46875 C3 13 3 13 1 15 C-0.125 10.25 -0.125 10.25 1 8 C0.67 7.34 0.34 6.68 0 6 C-0.039992 4.00039988 -0.04346799 1.99952758 0 0 Z " fill="#6AA9C6" transform="translate(628,730)"/>
<path d="M0 0 C0.99 0.33 1.98 0.66 3 1 C3.06058594 1.67546875 3.12117187 2.3509375 3.18359375 3.046875 C3.26738281 3.93890625 3.35117187 4.8309375 3.4375 5.75 C3.55931641 7.07257813 3.55931641 7.07257813 3.68359375 8.421875 C3.96238465 10.69350452 4.38790577 12.79851823 5 15 C1.95601671 12.15240273 0.11001599 10.30153445 -0.09765625 5.95703125 C-0.06510417 3.97135417 -0.03255208 1.98567708 0 0 Z " fill="#E44D60" transform="translate(632,339)"/>
<path d="M0 0 C3.57410797 2.68058098 6.31941902 5.42589203 9 9 C5.20960118 8.47355572 2.78184732 7.68249563 0 5 C-0.8125 2.875 -0.8125 2.875 -1 1 C-0.67 0.67 -0.34 0.34 0 0 Z " fill="#BDB66D" transform="translate(671,673)"/>
<path d="M0 0 C0.74507812 0.09990234 1.49015625 0.19980469 2.2578125 0.30273438 C4.08945442 0.54930156 5.91986251 0.80500391 7.75 1.0625 C7.75 1.3925 7.75 1.7225 7.75 2.0625 C5.16638482 2.11657567 2.58390745 2.156207 0 2.1875 C-0.72960937 2.20425781 -1.45921875 2.22101563 -2.2109375 2.23828125 C-6.0544624 2.27322239 -8.99606772 2.23749684 -12.25 0.0625 C-8.03080897 -1.18930279 -4.28911435 -0.61002421 0 0 Z " fill="#E24A5F" transform="translate(660.25,361.9375)"/>
<path d="M0 0 C0.99 0 1.98 0 3 0 C3 2.64 3 5.28 3 8 C2.01 8 1.02 8 0 8 C-0.38063221 5.6739143 -0.71269945 3.33944736 -1 1 C-0.67 0.67 -0.34 0.34 0 0 Z " fill="#405474" transform="translate(640,726)"/>
<path d="M0 0 C0.33 0 0.66 0 1 0 C1.50512244 1.60256108 2.00391627 3.20711792 2.5 4.8125 C2.7784375 5.70582031 3.056875 6.59914063 3.34375 7.51953125 C4 10 4 10 4 13 C3.34 13 2.68 13 2 13 C1.67 13.66 1.34 14.32 1 15 C-0.00109515 11.68929162 -0.10356134 8.69915231 -0.0625 5.25 C-0.05347656 4.26515625 -0.04445313 3.2803125 -0.03515625 2.265625 C-0.02355469 1.51796875 -0.01195312 0.7703125 0 0 Z " fill="#BD9872" transform="translate(592,363)"/>
<path d="M0 0 C0.66 0.33 1.32 0.66 2 1 C1 4 1 4 -1 5 C-3.2072923 5.07092842 -5.41667452 5.08415025 -7.625 5.0625 C-8.81351563 5.05347656 -10.00203125 5.04445312 -11.2265625 5.03515625 C-12.14179687 5.02355469 -13.05703125 5.01195312 -14 5 C-14 4.67 -14 4.34 -14 4 C-13.32453125 3.96261719 -12.6490625 3.92523438 -11.953125 3.88671875 C-11.06109375 3.82097656 -10.1690625 3.75523437 -9.25 3.6875 C-8.36828125 3.62949219 -7.4865625 3.57148438 -6.578125 3.51171875 C-3.67696226 2.9358819 -2.20774393 1.92403852 0 0 Z " fill="#4AADDA" transform="translate(683,190)"/>
<path d="M0 0 C0.66 0.33 1.32 0.66 2 1 C1.5875 1.53625 1.175 2.0725 0.75 2.625 C-1.2626868 5.35650351 -3.13306099 8.16740287 -5 11 C-5.99 10.67 -6.98 10.34 -8 10 C-7.34 10 -6.68 10 -6 10 C-5.938125 9.278125 -5.87625 8.55625 -5.8125 7.8125 C-4.75543353 4.15342375 -2.79449929 2.50788398 0 0 Z " fill="#202020" transform="translate(1009,504)"/>
<path d="M0 0 C0.9075 0.78375 1.815 1.5675 2.75 2.375 C5.05190236 4.30052496 7.21577207 5.82205741 10 7 C8.02 7.99 8.02 7.99 6 9 C3.69 7.02 1.38 5.04 -1 3 C-0.67 2.01 -0.34 1.02 0 0 Z " fill="#20150E" transform="translate(934,447)"/>
<path d="M0 0 C2.5999298 2.51027705 4.99091227 4.9863684 7 8 C7 8.66 7 9.32 7 10 C8.32 10.33 9.64 10.66 11 11 C8.125 11.125 8.125 11.125 5 11 C4.34 10.34 3.68 9.68 3 9 C3 8.34 3 7.68 3 7 C2.505 6.360625 2.01 5.72125 1.5 5.0625 C0 3 0 3 0 0 Z " fill="#913468" transform="translate(910,345)"/>
<path d="M0 0 C3.339712 0.73586875 6.47836787 1.63842727 9.6875 2.8125 C6.13799966 3.97556443 3.12926052 3.73615049 -0.5625 3.375 C-1.64015625 3.27316406 -2.7178125 3.17132813 -3.828125 3.06640625 C-4.64796875 2.98261719 -5.4678125 2.89882812 -6.3125 2.8125 C-3.7265625 -0.2109375 -3.7265625 -0.2109375 0 0 Z " fill="#4180B3" transform="translate(827.3125,169.1875)"/>
<path d="M0 0 C0 3 0 3 -1.4375 5.3125 C-4 7 -4 7 -6.26953125 6.80859375 C-8.55041212 6.29494656 -10.77126438 5.70481383 -13 5 C-10.8265258 4.43821218 -8.72318483 3.95847772 -6.5 3.625 C-3.72065601 2.930164 -2.16276259 1.84235331 0 0 Z " fill="#9B8B74" transform="translate(708,684)"/>
<path d="M0 0 C2.20570067 0.8001884 4.24371041 1.73945871 6.328125 2.81640625 C7.03453125 3.17863281 7.7409375 3.54085937 8.46875 3.9140625 C8.99984375 4.19121094 9.5309375 4.46835938 10.078125 4.75390625 C6.22319889 6.03888162 4.67465664 5.15912715 0.890625 3.81640625 C-0.19605469 3.43613281 -1.28273438 3.05585938 -2.40234375 2.6640625 C-3.23378906 2.36371094 -4.06523438 2.06335938 -4.921875 1.75390625 C-1.921875 -0.24609375 -1.921875 -0.24609375 0 0 Z " fill="#616E95" transform="translate(736.921875,197.24609375)"/>
<path d="M0 0 C3.72727273 3.72727273 3.72727273 3.72727273 4 7 C3.411438 9.354248 2.75407101 11.69342986 2 14 C1.67 14 1.34 14 1 14 C0.67 9.38 0.34 4.76 0 0 Z " fill="#E75363" transform="translate(683,316)"/>
<path d="M0 0 C0.80824219 0.11085937 1.61648438 0.22171875 2.44921875 0.3359375 C3.37154297 0.47902344 3.37154297 0.47902344 4.3125 0.625 C1.69276734 3.24473266 -0.03916422 3.33313314 -3.6875 3.625 C-6.0625 2.6875 -6.0625 2.6875 -7.6875 1.625 C-4.33422361 -0.61051759 -3.78006343 -0.54783528 0 0 Z " fill="#357EC6" transform="translate(669.6875,199.375)"/>
<path d="M0 0 C2.97 0.495 2.97 0.495 6 1 C6.33 1.99 6.66 2.98 7 4 C3.25 5.125 3.25 5.125 1 4 C0.375 1.9375 0.375 1.9375 0 0 Z " fill="#494257" transform="translate(686,692)"/>
<path d="M0 0 C0.66 0.33 1.32 0.66 2 1 C-0.23407889 4.35111834 -1.26215824 5.81553956 -5.25 6.8125 C-6.61125 6.9053125 -6.61125 6.9053125 -8 7 C-8 6.34 -8 5.68 -8 5 C-6.68 5 -5.36 5 -4 5 C-3.67 4.01 -3.34 3.02 -3 2 C-2.01 1.34 -1.02 0.68 0 0 Z " fill="#F67A68" transform="translate(666,353)"/>
<path d="M0 0 C1.01320313 0.17789063 1.01320313 0.17789063 2.046875 0.359375 C2.046875 0.689375 2.046875 1.019375 2.046875 1.359375 C1.03367187 1.45025391 1.03367187 1.45025391 0 1.54296875 C-0.89203125 1.62675781 -1.7840625 1.71054688 -2.703125 1.796875 C-3.58484375 1.87808594 -4.4665625 1.95929688 -5.375 2.04296875 C-7.64662952 2.32175965 -9.75164323 2.74728077 -11.953125 3.359375 C-8.63472464 -1.61822554 -5.34517294 -0.77242384 0 0 Z " fill="#3C8DCC" transform="translate(672.953125,197.640625)"/>
<path d="M0 0 C5.66153846 1.47692308 5.66153846 1.47692308 7.375 4.125 C7.684375 5.053125 7.684375 5.053125 8 6 C2.33846154 4.52307692 2.33846154 4.52307692 0.625 1.875 C0.41875 1.25625 0.2125 0.6375 0 0 Z " fill="#D7CF74" transform="translate(674,675)"/>
<path d="M0 0 C-0.33 0.66 -0.66 1.32 -1 2 C-4.3 2 -7.6 2 -11 2 C-6.98764085 -0.6749061 -4.6342454 -1.48957888 0 0 Z " fill="#DCAA69" transform="translate(698,346)"/>
<path d="M0 0 C3.3 0.33 6.6 0.66 10 1 C9.67 1.66 9.34 2.32 9 3 C6.03 3 3.06 3 0 3 C0 2.01 0 1.02 0 0 Z " fill="#54C2E5" transform="translate(671,189)"/>
<path d="M0 0 C2.91517292 1.07401108 4.77810176 1.77810176 7 4 C4 5 4 5 0 5 C0 3.35 0 1.7 0 0 Z " fill="#58679F" transform="translate(775,241)"/>
<path d="M0 0 C7.625 1.75 7.625 1.75 11 4 C11 4.66 11 5.32 11 6 C9.68 5.67 8.36 5.34 7 5 C7 4.34 7 3.68 7 3 C4.69 2.34 2.38 1.68 0 1 C0 0.67 0 0.34 0 0 Z " fill="#60575E" transform="translate(685,690)"/>
</svg>
